<?xml version="1.0" encoding="UTF-8"?>
<svg version="1.1" xmlns="http://www.w3.org/2000/svg" width="220" height="156">
<path d="M0 0 C72.6 0 145.2 0 220 0 C220 51.48 220 102.96 220 156 C147.4 156 74.8 156 0 156 C0 104.52 0 53.04 0 0 Z " fill="#0D0914" transform="translate(0,0)"/>
<path d="M0 0 C72.6 0 145.2 0 220 0 C220 43.23 220 86.46 220 131 C218.35 130.34 216.7 129.68 215 129 C214.34 129.33 213.68 129.66 213 130 C212.96132813 128.77023438 212.96132813 128.77023438 212.921875 127.515625 C212.86515625 126.43796875 212.8084375 125.3603125 212.75 124.25 C212.70359375 123.18265625 212.6571875 122.1153125 212.609375 121.015625 C211.88671964 117.43940746 210.80464259 116.2563666 208 114 C205.56612247 112.78306124 203.58161154 112.68040104 200.875 112.4375 C199.50988281 112.31181641 199.50988281 112.31181641 198.1171875 112.18359375 C197.41851562 112.12300781 196.71984375 112.06242187 196 112 C195.67 110.68 195.34 109.36 195 108 C200.79141983 106.98396143 204.4584498 107.03736764 210 109 C210 104.71 210 100.42 210 96 C206.10517018 95.02629255 202.93504106 94.83351757 198.9375 94.8125 C197.70902344 94.79832031 196.48054687 94.78414063 195.21484375 94.76953125 C191.84757578 94.74499425 191.84757578 94.74499425 189 97 C186.73828125 96.9765625 186.73828125 96.9765625 184.3125 96.625 C183.50425781 96.51414062 182.69601563 96.40328125 181.86328125 96.2890625 C181.24839844 96.19367188 180.63351563 96.09828125 180 96 C180.99 94.515 180.99 94.515 182 93 C180.68 92.67 179.36 92.34 178 92 C178 92.99 178 93.98 178 95 C173.71 95 169.42 95 165 95 C165 93.35 165 91.7 165 90 C169.16276918 90.11888165 173.32533257 90.24316776 177.48779297 90.37231445 C178.90181165 90.41544251 180.31587502 90.45713168 181.72998047 90.49731445 C183.7706444 90.5555575 185.81108795 90.61909141 187.8515625 90.68359375 C189.07697754 90.72025146 190.30239258 90.75690918 191.56494141 90.79467773 C194.77784342 90.98672113 197.83941587 91.4055394 201 92 C200.835 91.34 200.67 90.68 200.5 90 C199.87816701 86.26900206 199.93591074 82.78126622 200 79 C198.205625 78.7834375 198.205625 78.7834375 196.375 78.5625 C192.8994842 78.12960657 189.45049966 77.60383744 186 77 C186.02320313 76.23816406 186.04640625 75.47632812 186.0703125 74.69140625 C186.18598557 68.07325416 185.57704785 62.41332791 184 56 C184.33 55.67 184.66 55.34 185 55 C191.90967089 55 195.24089065 58.2656133 200 63 C197.18138324 57.13727714 195.02224917 54.59579706 189 52 C183.9196061 51.46409347 180.25596385 52.84776683 175.8125 55.125 C175.13268066 55.46901855 174.45286133 55.81303711 173.75244141 56.16748047 C163.31775002 61.6922832 152.8076273 68.93324362 144.5703125 77.4296875 C143.72210938 78.27789062 142.87390625 79.12609375 142 80 C141.34 80 140.68 80 140 80 C140 80.66 140 81.32 140 82 C142.97 81.505 142.97 81.505 146 81 C150.29 81 154.58 81 159 81 C159.33 89.91 159.66 98.82 160 108 C157.39442644 104.52590192 156.862057 103.56695558 155.8125 99.8125 C154.95651838 97.58783537 154.95651838 97.58783537 153 96 C147.63994598 94.96310112 142.44565519 94.89868548 137 95 C136.67 92.03 136.34 89.06 136 86 C136.66 86 137.32 86 138 86 C137.67 85.05125 137.34 84.1025 137 83.125 C135.6355542 78.44552744 135.82500659 73.83176241 136 69 C134.9378125 68.93941406 133.875625 68.87882812 132.78125 68.81640625 C114.63348291 67.75242369 114.63348291 67.75242369 109.8125 66.375 C107.90181428 65.82355526 107.90181428 65.82355526 105.71875 66.7421875 C103 67 103 67 100.44921875 65.296875 C99.53785156 64.45640625 98.62648438 63.6159375 97.6875 62.75 C83.52667223 50.20423828 66.28727845 38.73212818 49 31 C48.35289063 30.68289062 47.70578125 30.36578125 47.0390625 30.0390625 C40.64575989 27.19469522 33.50402297 26.83516647 26.734375 28.5859375 C17.27323305 32.64603385 11.9235071 41.96461585 8 51 C8.54527344 50.34773438 9.09054687 49.69546875 9.65234375 49.0234375 C15.18816182 42.6075663 20.79230442 36.73589853 29 34 C30.56118428 33.93259135 32.1250252 33.91485544 33.6875 33.9375 C34.89986328 33.95103516 34.89986328 33.95103516 36.13671875 33.96484375 C36.75160156 33.97644531 37.36648437 33.98804688 38 34 C39.24487691 37.73463072 38.53769756 38.71255691 37.125 42.3125 C34.69084185 49.17011106 34.21396498 55.76798378 34 63 C33.01 63.33 32.02 63.66 31 64 C31.79117904 65.99983534 31.79117904 65.99983534 33 68 C33.99 68.33 34.98 68.66 36 69 C36.6875 71.0625 36.6875 71.0625 37 73 C38.32 73.33 39.64 73.66 41 74 C41.33 75.65 41.66 77.3 42 79 C41.34 79 40.68 79 40 79 C40 79.99 40 80.98 40 82 C26.48048359 82.35786955 13.60178366 81.13348197 0 80 C0 53.6 0 27.2 0 0 Z " fill="#060213" transform="translate(0,0)"/>
<path d="M0 0 C5.60409451 2.90204648 10.88995825 6.32163241 16.14404297 9.80761719 C17.82054792 10.9190581 19.51090707 12.00952917 21.20263672 13.09765625 C29.3137115 18.36985486 37.31816783 24.06802679 44.60522461 30.4465332 C46.0246279 31.68761404 47.50109265 32.86273691 48.98388672 34.02734375 C51.65529135 33.96025091 51.65529135 33.96025091 53.98388672 33.02734375 C56.98388672 33.02734375 56.98388672 33.02734375 60.67138672 33.90234375 C67.67785004 35.53175383 74.84743997 36.20424437 81.98388672 37.02734375 C82.03287109 37.775 82.08185547 38.52265625 82.13232422 39.29296875 C82.24447266 40.77023438 82.24447266 40.77023438 82.35888672 42.27734375 C82.46330078 43.73914063 82.46330078 43.73914063 82.56982422 45.23046875 C82.96853921 47.92367564 83.61895735 49.69697654 84.98388672 52.02734375 C84.32388672 53.01734375 83.66388672 54.00734375 82.98388672 55.02734375 C82.72271387 58.1461274 82.72271387 58.1461274 82.82373047 61.72265625 C82.82929459 62.38365326 82.8348587 63.04465027 82.84059143 63.72567749 C82.85298674 65.13820541 82.86963184 66.55070129 82.89013672 67.96313477 C82.94207406 71.60158899 82.96197494 75.2401475 82.97998047 78.87890625 C82.98391815 79.58956238 82.98785583 80.30021851 82.99191284 81.03240967 C83.0180045 88.72888945 82.63054734 96.35979637 81.98388672 104.02734375 C79.670987 100.55799418 78.71171378 97.11225886 77.60107422 93.1484375 C77.38194366 92.38056412 77.16281311 91.61269073 76.93704224 90.82154846 C76.47570533 89.2008351 76.01693244 87.57938999 75.56054688 85.95727539 C74.86008416 83.46909728 74.15117232 80.98344557 73.44091797 78.49804688 C72.99380397 76.9233188 72.54717278 75.34845354 72.10107422 73.7734375 C71.88861053 73.02758896 71.67614685 72.28174042 71.45724487 71.51329041 C69.98388672 66.25950767 69.98388672 66.25950767 69.98388672 64.02734375 C64.04388672 64.02734375 58.10388672 64.02734375 51.98388672 64.02734375 C51.58556641 65.6825 51.18724609 67.33765625 50.77685547 69.04296875 C48.86343016 76.69666997 46.58904133 84.23148411 44.29638672 91.77734375 C43.87620415 93.16789 43.45628076 94.5585146 43.03662109 95.94921875 C42.02201888 99.30949907 41.00394978 102.66871654 39.98388672 106.02734375 C41.63388672 106.02734375 43.28388672 106.02734375 44.98388672 106.02734375 C44.98388672 106.35734375 44.98388672 106.68734375 44.98388672 107.02734375 C41.51888672 107.52234375 41.51888672 107.52234375 37.98388672 108.02734375 C38.12489529 105.75620572 38.27185427 103.4854365 38.42138672 101.21484375 C38.54320313 99.31798828 38.54320313 99.31798828 38.66748047 97.3828125 C38.98388672 94.02734375 38.98388672 94.02734375 39.98388672 91.02734375 C39.02482422 91.52234375 39.02482422 91.52234375 38.04638672 92.02734375 C34.04717546 93.33320865 30.16297302 93.58564998 25.98388672 93.02734375 C23.6026276 90.64608463 23.6386703 89.92026837 23.54638672 86.65234375 C23.61698799 82.99284469 23.70024018 82.33398865 26.29638672 79.52734375 C30.70407324 77.06723965 33.99518162 76.93321724 38.98388672 77.02734375 C39.31388672 72.73734375 39.64388672 68.44734375 39.98388672 64.02734375 C28.09888704 63.01198487 28.09888704 63.01198487 17.53466797 67.58203125 C16.76703125 68.29746094 16.76703125 68.29746094 15.98388672 69.02734375 C15.46181641 69.50429687 14.93974609 69.98125 14.40185547 70.47265625 C13.21852679 71.61360677 12.09306338 72.81418178 10.98388672 74.02734375 C9.49888672 73.53234375 9.49888672 73.53234375 7.98388672 73.02734375 C9.63388672 70.71734375 11.28388672 68.40734375 12.98388672 66.02734375 C8.03388672 65.69734375 3.08388672 65.36734375 -2.01611328 65.02734375 C-2.67611328 66.67734375 -3.33611328 68.32734375 -4.01611328 70.02734375 C-5.27793717 72.40823044 -6.64915829 74.70352026 -8.01611328 77.02734375 C-11.31854635 73.72491069 -10.66609104 69.57763289 -11.01611328 65.02734375 C-16.29611328 65.68734375 -21.57611328 66.34734375 -27.01611328 67.02734375 C-26.42701172 68.46207031 -25.83791016 69.89679688 -25.23095703 71.375 C-24.47099025 73.2796081 -23.71192282 75.18457522 -22.95361328 77.08984375 C-22.36870117 78.50426758 -22.36870117 78.50426758 -21.77197266 79.94726562 C-19.58677352 85.49728468 -18.47245079 89.20021989 -20.01611328 95.02734375 C-20.67611328 95.02734375 -21.33611328 95.02734375 -22.01611328 95.02734375 C-22.34611328 94.03734375 -22.67611328 93.04734375 -23.01611328 92.02734375 C-22.68611328 91.36734375 -22.35611328 90.70734375 -22.01611328 90.02734375 C-26.30611328 90.02734375 -30.59611328 90.02734375 -35.01611328 90.02734375 C-35.2238846 80.67763454 -34.50635995 72.24824502 -33.01611328 63.02734375 C-38.62611328 63.02734375 -44.23611328 63.02734375 -50.01611328 63.02734375 C-50.01611328 77.21734375 -50.01611328 91.40734375 -50.01611328 106.02734375 C-48.69611328 106.35734375 -47.37611328 106.68734375 -46.01611328 107.02734375 C-47.66611328 107.02734375 -49.31611328 107.02734375 -51.01611328 107.02734375 C-51.01611328 100.75734375 -51.01611328 94.48734375 -51.01611328 88.02734375 C-52.00611328 88.02734375 -52.99611328 88.02734375 -54.01611328 88.02734375 C-54.01611328 74.82734375 -54.01611328 61.62734375 -54.01611328 48.02734375 C-40.66984086 48.5581614 -27.34120962 49.10634444 -14.01611328 50.02734375 C-14.01611328 49.03734375 -14.01611328 48.04734375 -14.01611328 47.02734375 C-13.35611328 47.02734375 -12.69611328 47.02734375 -12.01611328 47.02734375 C-12.79741399 44.53181891 -12.79741399 44.53181891 -14.01611328 42.02734375 C-15.00611328 41.69734375 -15.99611328 41.36734375 -17.01611328 41.02734375 C-17.68277995 39.69401042 -18.34944661 38.36067708 -19.01611328 37.02734375 C-20.64358022 35.32237838 -22.3050264 33.64837343 -24.01611328 32.02734375 C-22.03611328 31.53234375 -22.03611328 31.53234375 -20.01611328 31.02734375 C-20.06251953 30.1559375 -20.10892578 29.28453125 -20.15673828 28.38671875 C-20.39038665 20.67632263 -19.66704055 14.56516875 -16.89111328 7.35546875 C-15.89884267 5.12984101 -15.89884267 5.12984101 -16.01611328 3.02734375 C-24.21072723 2.34445925 -29.25486821 3.92616589 -35.59814453 9.15625 C-39.53419121 12.65431784 -43.31009914 16.28732948 -47.01611328 20.02734375 C-44.38814453 10.95618258 -38.03208046 2.19719225 -30.01611328 -2.97265625 C-19.82110339 -7.7930316 -9.65754794 -4.66309853 0 0 Z " fill="#0D0915" transform="translate(54.01611328125,31.97265625)"/>
<path d="M0 0 C14.52 0 29.04 0 44 0 C44 8.58 44 17.16 44 26 C45.32 26.33 46.64 26.66 48 27 C48 27.99 48 28.98 48 30 C47.0925 29.67 46.185 29.34 45.25 29 C38.70261112 27.16726234 31.08803878 26.69976727 24.75 29.4375 C16.4991136 34.32627885 11.71989513 42.43351072 8 51 C8.54527344 50.34773438 9.09054687 49.69546875 9.65234375 49.0234375 C15.18816182 42.6075663 20.79230442 36.73589853 29 34 C30.56118428 33.93259135 32.1250252 33.91485544 33.6875 33.9375 C34.89986328 33.95103516 34.89986328 33.95103516 36.13671875 33.96484375 C36.75160156 33.97644531 37.36648437 33.98804688 38 34 C39.24487691 37.73463072 38.53769756 38.71255691 37.125 42.3125 C34.69084185 49.17011106 34.21396498 55.76798378 34 63 C33.01 63.33 32.02 63.66 31 64 C31.79117904 65.99983534 31.79117904 65.99983534 33 68 C33.99 68.33 34.98 68.66 36 69 C36.6875 71.0625 36.6875 71.0625 37 73 C38.32 73.33 39.64 73.66 41 74 C41.33 75.65 41.66 77.3 42 79 C41.34 79 40.68 79 40 79 C40 79.99 40 80.98 40 82 C26.48048359 82.35786955 13.60178366 81.13348197 0 80 C0 53.6 0 27.2 0 0 Z " fill="#0D0412" transform="translate(0,0)"/>
<path d="M0 0 C5.28 0 10.56 0 16 0 C17.48198202 2.76936034 18.96068317 5.54038707 20.4375 8.3125 C21.06881836 9.49102539 21.06881836 9.49102539 21.71289062 10.69335938 C22.11572266 11.45068359 22.51855469 12.20800781 22.93359375 12.98828125 C23.30540771 13.68477783 23.67722168 14.38127441 24.06030273 15.09887695 C25 17 25 17 26 20 C26.33 13.73 26.66 7.46 27 1 C31.95 1 36.9 1 42 1 C41.87882703 5.05284911 41.75563844 9.10556863 41.62768555 13.15820312 C41.58489909 14.53121556 41.54319674 15.9042623 41.50268555 17.27734375 C41.2478524 25.88504106 40.79474616 34.42475571 40 43 C31.585 43.495 31.585 43.495 23 44 C20.36 37.4 17.72 30.8 15 24 C14.67 30.93 14.34 37.86 14 45 C9.05 45 4.1 45 -1 45 C-1 44.34 -1 43.68 -1 43 C-8.92 43.495 -8.92 43.495 -17 44 C-17.33 42.02 -17.66 40.04 -18 38 C-20.64 38 -23.28 38 -26 38 C-26.33 39.98 -26.66 41.96 -27 44 C-28.7290774 44.02725341 -30.45828176 44.04650987 -32.1875 44.0625 C-33.15042969 44.07410156 -34.11335938 44.08570313 -35.10546875 44.09765625 C-37.86119629 44.00468299 -40.31099705 43.57267638 -43 43 C-41.64913988 34.99243444 -39.42317568 27.29093634 -37.05883789 19.53808594 C-36.43061543 17.47741752 -35.80951499 15.41469959 -35.18945312 13.3515625 C-32.15629186 3.31258372 -32.15629186 3.31258372 -31 1 C-25.06 1 -19.12 1 -13 1 C-12.113125 3.76375 -11.22625 6.5275 -10.3125 9.375 C-9.91091675 10.61709229 -9.91091675 10.61709229 -9.5012207 11.88427734 C-6.74885561 20.53566402 -4.43681065 29.22748166 -2 38 C-1.34 25.46 -0.68 12.92 0 0 Z " fill="#E2DAA4" transform="translate(137,95)"/>
<path d="M0 0 C5.60409451 2.90204648 10.88995825 6.32163241 16.14404297 9.80761719 C17.82054792 10.9190581 19.51090707 12.00952917 21.20263672 13.09765625 C28.77593749 18.02030175 35.91062166 23.42261484 42.98388672 29.02734375 C43.95712891 29.79304688 44.93037109 30.55875 45.93310547 31.34765625 C51.36749014 35.69819572 56.38447422 40.2547188 61.20654297 45.27734375 C62.87761884 47.10290329 62.87761884 47.10290329 64.98388672 48.02734375 C64.98388672 48.68734375 64.98388672 49.34734375 64.98388672 50.02734375 C4.91872982 48.33774721 4.91872982 48.33774721 -16.01611328 36.02734375 C-20.29155803 31.22818083 -20.33948215 26.56429073 -20.31689453 20.3828125 C-19.9026468 15.76152942 -18.52432644 11.74699108 -16.89111328 7.42578125 C-15.90187139 5.13970897 -15.90187139 5.13970897 -16.01611328 3.02734375 C-24.21072723 2.34445925 -29.25486821 3.92616589 -35.59814453 9.15625 C-39.53419121 12.65431784 -43.31009914 16.28732948 -47.01611328 20.02734375 C-44.38814453 10.95618258 -38.03208046 2.19719225 -30.01611328 -2.97265625 C-19.82110339 -7.7930316 -9.65754794 -4.66309853 0 0 Z " fill="#E0D8A8" transform="translate(54.01611328125,31.97265625)"/>
<path d="M0 0 C0.66 0.99 1.32 1.98 2 3 C5.5982087 7.64768623 10.64520199 9.07881293 16 11 C15.67 11.66 15.34 12.32 15 13 C15.33027916 14.66727459 15.66454488 16.3337591 16 18 C16.30927661 21.88344644 16.44012077 25.77812038 16.60546875 29.66992188 C16.69441719 33.97148288 16.69441719 33.97148288 18 38 C16.78515625 40.3828125 16.78515625 40.3828125 15.0625 43.125 C14.49660156 44.03507812 13.93070313 44.94515625 13.34765625 45.8828125 C12.90292969 46.58148438 12.45820312 47.28015625 12 48 C8.69756694 44.69756694 9.35002224 40.55028914 9 36 C1.08 36.99 1.08 36.99 -7 38 C-6.41089844 39.43472656 -5.82179688 40.86945313 -5.21484375 42.34765625 C-4.45487697 44.25226435 -3.69580953 46.15723147 -2.9375 48.0625 C-2.35258789 49.47692383 -2.35258789 49.47692383 -1.75585938 50.91992188 C0.42933976 56.46994093 1.54366249 60.17287614 0 66 C-0.66 66 -1.32 66 -2 66 C-2.33 65.01 -2.66 64.02 -3 63 C-2.67 62.34 -2.34 61.68 -2 61 C-6.29 61 -10.58 61 -15 61 C-15.20777132 51.65029079 -14.49024667 43.22090127 -13 34 C-18.61 34 -24.22 34 -30 34 C-30 48.19 -30 62.38 -30 77 C-28.68 77.33 -27.36 77.66 -26 78 C-27.65 78 -29.3 78 -31 78 C-31 71.73 -31 65.46 -31 59 C-31.99 59 -32.98 59 -34 59 C-34 45.8 -34 32.6 -34 19 C-20.65372758 19.53081765 -7.32509634 20.07900069 6 21 C6 20.01 6 19.02 6 18 C6.66 18 7.32 18 8 18 C7.21869929 15.50447516 7.21869929 15.50447516 6 13 C5.01 12.67 4.02 12.34 3 12 C2.33333333 10.66666667 1.66666667 9.33333333 1 8 C-0.62746694 6.29503463 -2.28891311 4.62102968 -4 3 C-2.68 2.67 -1.36 2.34 0 2 C0 1.34 0 0.68 0 0 Z " fill="#292124" transform="translate(34,61)"/>
<path d="M0 0 C5.94 0 11.88 0 18 0 C21.93815127 12.27237839 25.64042653 24.55768585 29 37 C29.33 32.38 29.66 27.76 30 23 C30.33 23 30.66 23 31 23 C31 29.6 31 36.2 31 43 C35.29 43 39.58 43 44 43 C44 40.69 44 38.38 44 36 C44.33 36 44.66 36 45 36 C45 38.64 45 41.28 45 44 C40.05 44 35.1 44 30 44 C30 43.34 30 42.68 30 42 C22.08 42.495 22.08 42.495 14 43 C13.67 41.02 13.34 39.04 13 37 C10.36 37 7.72 37 5 37 C4.67 38.98 4.34 40.96 4 43 C2.2709226 43.02725341 0.54171824 43.04650987 -1.1875 43.0625 C-2.15042969 43.07410156 -3.11335938 43.08570313 -4.10546875 43.09765625 C-6.86119629 43.00468299 -9.31099705 42.57267638 -12 42 C-10.64913988 33.99243444 -8.42317568 26.29093634 -6.05883789 18.53808594 C-5.43061543 16.47741752 -4.80951499 14.41469959 -4.18945312 12.3515625 C-1.15629186 2.31258372 -1.15629186 2.31258372 0 0 Z " fill="#DDD4A2" transform="translate(106,96)"/>
<path d="M0 0 C3.38779173 1.27956699 6.44560885 2.74278636 9.546875 4.609375 C10.3925 5.11726563 11.238125 5.62515625 12.109375 6.1484375 C13.41648437 6.94121094 13.41648437 6.94121094 14.75 7.75 C15.6059375 8.26304688 16.461875 8.77609375 17.34375 9.3046875 C21.44805171 11.77970581 25.49681889 14.30550887 29.46875 16.98828125 C34.44523171 20.33990114 39.5781709 23.3986775 44.75 26.4375 C45.70922363 27.00299561 46.66844727 27.56849121 47.65673828 28.15112305 C54.68347994 32.27422799 61.76823311 36.24766812 69 40 C63.43461228 41.77966354 57.63778498 40.48095761 51.9375 39.875 C50.65576904 39.73956787 49.37403809 39.60413574 48.0534668 39.46459961 C39.08405856 38.47946738 30.19376444 37.16981681 21.3125 35.5625 C20.22251709 35.36962402 19.13253418 35.17674805 18.00952148 34.97802734 C0.43522199 31.63145087 0.43522199 31.63145087 -4 26 C-4.33076054 23.37477448 -4.47381854 21.05969834 -4.4375 18.4375 C-4.43427734 17.72529297 -4.43105469 17.01308594 -4.42773438 16.27929688 C-4.27005908 10.27132427 -2.86188566 5.31493052 0 0 Z " fill="#E41028" transform="translate(42,37)"/>
<path d="M0 0 C1.65 0.66 3.3 1.32 5 2 C4.67 6.29 4.34 10.58 4 15 C0.97265625 14.73958333 -2.0546875 14.47916667 -5.08203125 14.21875 C-8.01090811 13.96262162 -8.01090811 13.96262162 -11 14 C-10.67 14.99 -10.34 15.98 -10 17 C-9.34773437 17.02578125 -8.69546875 17.0515625 -8.0234375 17.078125 C-2.13431877 17.4603097 1.46206116 18.1602056 6 22 C8.09071372 26.18142744 7.43450877 31.44658613 7 36 C4.54720917 40.99318133 1.58799354 43.63411452 -3.25 46.1875 C-10.94021841 48.45960999 -18.0095625 46.49521875 -25 43 C-25.02708567 41.39592672 -25.04643483 39.7917215 -25.0625 38.1875 C-25.07410156 37.29417969 -25.08570313 36.40085938 -25.09765625 35.48046875 C-25 33 -25 33 -24 30 C-23.030625 30.33 -22.06125 30.66 -21.0625 31 C-16.70233163 32.26873752 -12.50445434 32.18385528 -8 32 C-7.67 31.01 -7.34 30.02 -7 29 C-7.72445312 28.98582031 -8.44890625 28.97164062 -9.1953125 28.95703125 C-15.88560603 28.62697677 -19.40007844 27.96307326 -24 23 C-25.8484707 19.3030586 -25.33322176 15.04351792 -25 11 C-23.44425673 6.72170602 -20.23362853 3.80542564 -16.5859375 1.16796875 C-11.36885642 -1.1883866 -5.57924345 -0.69323933 0 0 Z " fill="#E0D8A6" transform="translate(206,94)"/>
<path d="M0 0 C1.22203125 0.01546875 2.4440625 0.0309375 3.703125 0.046875 C6.75 0.25 6.75 0.25 8.75 1.25 C8.42 5.54 8.09 9.83 7.75 14.25 C5.27604167 14.67317708 2.80208333 15.09635417 0.328125 15.51953125 C-2.53870387 16.33179943 -4.15629167 17.12727954 -6.25 19.25 C-6.76877087 21.49222821 -6.76877087 21.49222821 -6.5625 23.875 C-6.53800781 24.67164062 -6.51351562 25.46828125 -6.48828125 26.2890625 C-6.45436664 28.25118254 -6.45436664 28.25118254 -5.25 29.25 C-3.83620481 29.34931619 -2.41727151 29.37969295 -1 29.375 C-0.23171875 29.37757812 0.5365625 29.38015625 1.328125 29.3828125 C4.2021596 29.28274638 4.2021596 29.28274638 8.75 28.25 C8.42 32.87 8.09 37.49 7.75 42.25 C1.56295046 44.90159266 -3.74410849 46.72967124 -10.35546875 44.55859375 C-16.03096862 42.01366979 -19.68153609 38.59126995 -22.359375 32.88671875 C-24.40027668 26.8445756 -24.04086297 20.37859989 -21.625 14.5 C-16.85622038 5.13035554 -10.96883984 -0.23337957 0 0 Z " fill="#E0D8A5" transform="translate(85.25,94.75)"/>
<path d="M0 0 C11.22 0 22.44 0 34 0 C34 8.58 34 17.16 34 26 C35.32 26.33 36.64 26.66 38 27 C38 27.99 38 28.98 38 30 C37.0925 29.67 36.185 29.34 35.25 29 C27.13295923 26.706771 19.46867559 27.2656622 12 31 C11.34 30.67 10.68 30.34 10 30 C8.46331135 29.77532169 6.92031946 29.59203195 5.375 29.4375 C4.55773437 29.35371094 3.74046875 29.26992188 2.8984375 29.18359375 C1.95871094 29.09271484 1.95871094 29.09271484 1 29 C0.62630444 26.79488736 0.27741482 24.58557188 -0.0625 22.375 C-0.25972656 21.14523438 -0.45695313 19.91546875 -0.66015625 18.6484375 C-1.1136882 12.44495455 -0.44315947 6.20423256 0 0 Z " fill="#181425" transform="translate(10,0)"/>
<path d="M0 0 C0.66 3.3 1.32 6.6 2 10 C4.37348322 7.62651678 5.64345459 6.13437609 7.1875 3.3125 C7.785625 2.219375 8.38375 1.12625 9 0 C14.15171623 -0.09038099 18.91913204 0.15318867 24 1 C22.39153241 6.12699046 19.2374081 9.93316734 16 14.125 C14.91607399 15.54381825 13.8327179 16.96307212 12.75 18.3828125 C12.27046875 19.00559082 11.7909375 19.62836914 11.296875 20.27001953 C8.79848699 23.60277131 7.74368512 25.54023932 7.5859375 29.66796875 C7.54726563 30.56064453 7.50859375 31.45332031 7.46875 32.37304688 C7.42234375 33.76620117 7.42234375 33.76620117 7.375 35.1875 C7.33632813 36.12787109 7.29765625 37.06824219 7.2578125 38.03710938 C7.16357326 40.35775066 7.08069877 42.67884841 7 45 C2.05 45 -2.9 45 -8 45 C-7.99097656 43.62070313 -7.98195313 42.24140625 -7.97265625 40.8203125 C-8.09322307 28.88419779 -9.59014291 19.3581319 -14.50390625 8.45703125 C-16 5 -16 5 -16 2 C-10.54538831 0.61470179 -5.63281599 -0.2396943 0 0 Z " fill="#E0D7A4" transform="translate(43,97)"/>
<path d="M0 0 C5.61 0 11.22 0 17 0 C16.34 8.91 15.68 17.82 15 27 C19.29 27 23.58 27 28 27 C27.34 31.95 26.68 36.9 26 42 C17.42 42.33 8.84 42.66 0 43 C0 28.81 0 14.62 0 0 Z " fill="#DED6A4" transform="translate(4,95)"/>
<path d="M0 0 C4.6729935 2.69629124 7.35957014 5.39406708 9.98046875 10.08984375 C9.65046875 10.74984375 9.32046875 11.40984375 8.98046875 12.08984375 C8.48417969 11.59613281 7.98789063 11.10242187 7.4765625 10.59375 C2.98922547 6.3618591 0.21127035 4.21965212 -6.01953125 4.08984375 C-5.87515625 4.66992188 -5.73078125 5.25 -5.58203125 5.84765625 C-3.43345066 14.88959955 -3.43345066 14.88959955 -4.01953125 19.08984375 C-12.29258486 29.04038289 -30.58678977 28.62265647 -42.48388672 29.87304688 C-45.33861245 30.1171251 -48.15585105 30.18808321 -51.01953125 30.08984375 C-51.01953125 28.08984375 -51.01953125 28.08984375 -49.83203125 26.78515625 C-12.44311629 -5.6078261 -12.44311629 -5.6078261 0 0 Z " fill="#E9D0AB" transform="translate(191.01953125,51.91015625)"/>
<path d="M0 0 C0.33 1.32 0.66 2.64 1 4 C1.88751953 4.09087891 1.88751953 4.09087891 2.79296875 4.18359375 C3.58316406 4.26738281 4.37335938 4.35117188 5.1875 4.4375 C5.96480469 4.51871094 6.74210937 4.59992188 7.54296875 4.68359375 C10.04640786 5.00597621 12.52490524 5.50498105 15 6 C15.495 12.435 15.495 12.435 16 19 C11.19432577 18.88188994 6.38886432 18.75765177 1.58349609 18.62768555 C-0.05187653 18.58432462 -1.68729477 18.54265039 -3.32275391 18.50268555 C-5.67103841 18.44501088 -8.01909304 18.38130871 -10.3671875 18.31640625 C-11.10057343 18.29969376 -11.83395935 18.28298126 -12.58956909 18.26576233 C-17.77225659 18.11387171 -17.77225659 18.11387171 -20 17 C-20 18.65 -20 20.3 -20 22 C-15.38 22 -10.76 22 -6 22 C-6 22.33 -6 22.66 -6 23 C-10.95 23 -15.9 23 -21 23 C-21 29.93 -21 36.86 -21 44 C-26.31497947 38.68502053 -26.05119876 31.52450319 -26.09765625 24.40625 C-26.09109367 22.43747606 -26.07929349 20.46871325 -26.0625 18.5 C-26.05798828 17.48679687 -26.05347656 16.47359375 -26.04882812 15.4296875 C-26.03714593 12.95306173 -26.02076582 10.47656343 -26 8 C-27.65 8 -29.3 8 -31 8 C-31 7.67 -31 7.34 -31 7 C-30.45174561 6.93006836 -29.90349121 6.86013672 -29.33862305 6.78808594 C-14.30435237 4.85945168 -14.30435237 4.85945168 0 0 Z " fill="#342726" transform="translate(185,73)"/>
<path d="M0 0 C7.30191376 0.60030831 14.42867584 1.70298082 21.625 3.0625 C22.62917969 3.24876953 23.63335937 3.43503906 24.66796875 3.62695312 C27.11268755 4.08097233 29.55664548 4.53870544 32 5 C32 5.33 32 5.66 32 6 C30.329375 6.2165625 30.329375 6.2165625 28.625 6.4375 C25.17857953 6.78372035 25.17857953 6.78372035 23 8 C22.67 7.34 22.34 6.68 22 6 C21.77880061 8.62450086 21.57253331 11.24870486 21.375 13.875 C21.31054688 14.62136719 21.24609375 15.36773437 21.1796875 16.13671875 C21.03912635 18.0870047 21.01240151 20.04469467 21 22 C21.66 22.66 22.32 23.32 23 24 C22.34 24 21.68 24 21 24 C20.67 24.66 20.34 25.32 20 26 C20 25.34 20 24.68 20 24 C18.17662109 24.12568359 18.17662109 24.12568359 16.31640625 24.25390625 C14.73178879 24.35704703 13.14715235 24.45989661 11.5625 24.5625 C10.76005859 24.61857422 9.95761719 24.67464844 9.13085938 24.73242188 C7.08937889 24.8616295 5.04453631 24.9351273 3 25 C0.87586172 22.87586172 1.62490922 18.26637169 1.5 15.3125 C1.27559753 10.13046523 0.99002492 5.10687855 0 0 Z " fill="#0B040F" transform="translate(48,73)"/>
<path d="M0 0 C0.99 0.33 1.98 0.66 3 1 C3.99 1 4.98 1 6 1 C7.77699667 1.199587 9.55156409 1.42120187 11.32421875 1.65625 C12.86625977 1.85927734 12.86625977 1.85927734 14.43945312 2.06640625 C16.04723633 2.28103516 16.04723633 2.28103516 17.6875 2.5 C18.77095703 2.64308594 19.85441406 2.78617187 20.97070312 2.93359375 C23.64736868 3.2873381 26.32378366 3.64287566 29 4 C29.07347656 5.12148437 29.07347656 5.12148437 29.1484375 6.265625 C29.22320312 7.25046875 29.29796875 8.2353125 29.375 9.25 C29.44460937 10.22453125 29.51421875 11.1990625 29.5859375 12.203125 C29.98465249 14.89633189 30.63507063 16.66963279 32 19 C31.34 19.99 30.68 20.98 30 22 C29.82887998 24.47056823 29.76746876 26.82503921 29.8046875 29.29296875 C29.80893234 30.35201164 29.80893234 30.35201164 29.81326294 31.43244934 C29.82444536 33.68430633 29.8495458 35.93576352 29.875 38.1875 C29.88503233 39.71548904 29.89415774 41.24348433 29.90234375 42.77148438 C29.92437828 46.51447663 29.95889433 50.25717056 30 54 C22.4148433 44.36749434 25.90788163 25.68344416 26 14 C24.47632813 14.31710938 24.47632813 14.31710938 22.921875 14.640625 C12.32313131 16.35672275 12.32313131 16.35672275 8.06445312 13.86962891 C4.19596233 10.69734045 1.05643653 6.94210848 -2 3 C-1 1 -1 1 0 0 Z " fill="#171220" transform="translate(107,65)"/>
<path d="M0 0 C1.32 0 2.64 0 4 0 C3.67 0.99 3.34 1.98 3 3 C1.92883444 7.37917685 1.63807838 11.75839141 1.5 16.25 C1.45746094 16.94738281 1.41492187 17.64476563 1.37109375 18.36328125 C1.27505496 20.66952358 1.27505496 20.66952358 2 24 C18.23485474 38.52718854 55.717856 37.02258778 76 39 C76 39.66 76 40.32 76 41 C77.98 41 79.96 41 82 41 C82 41.66 82 42.32 82 43 C21.9348431 41.31040346 21.9348431 41.31040346 1 29 C-3.32517794 24.14501184 -3.26477858 19.47080257 -3.234375 13.23046875 C-2.89518886 8.55535311 -1.62623304 4.37534126 0 0 Z " fill="#DCC3A6" transform="translate(37,39)"/>
<path d="M0 0 C1.98 0 3.96 0 6 0 C6 0.99 6 1.98 6 3 C7.43750191 4.68798827 7.43750191 4.68798827 9 6 C8.360625 6.598125 7.72125 7.19625 7.0625 7.8125 C4.0839068 10.971614 3.80851676 13.68399862 3.6875 17.875 C3.65011719 18.71804687 3.61273438 19.56109375 3.57421875 20.4296875 C4.16421419 23.99131136 5.39816499 25.51662252 8 28 C11.23486197 29.23675755 11.23486197 29.23675755 14.75 29.8125 C15.92046875 30.04582031 17.0909375 30.27914062 18.296875 30.51953125 C19.18890625 30.67808594 20.0809375 30.83664063 21 31 C20.67 32.32 20.34 33.64 20 35 C13.80112515 35.37952295 9.5522888 34.8352113 4 32 C3.67 36.29 3.34 40.58 3 45 C6.63 45.99 10.26 46.98 14 48 C11.53971082 50.46028918 9.46104525 50.82151227 6.04296875 51.1328125 C4 51 4 51 1 49.3125 C-1.13494035 45.77650505 -1.23597461 44.76523598 -1.15625 40.796875 C-1.13820312 39.72993408 -1.12015625 38.66299316 -1.1015625 37.5637207 C-1.06804687 36.38769287 -1.03453125 35.21166504 -1 34 C-0.96648437 32.73438232 -0.93296875 31.46876465 -0.8984375 30.16479492 C-0.78296621 26.08840236 -0.6427316 22.01301417 -0.5 17.9375 C-0.42813676 15.8377913 -0.35684509 13.73806458 -0.28601074 11.63832092 C-0.22231012 9.75746173 -0.15709822 7.8766539 -0.09179688 5.99584961 C-0.03057812 3.99793654 0 1.99885076 0 0 Z " fill="#0E090D" transform="translate(178,92)"/>
<path d="M0 0 C2.62370236 3.00245204 3.36302348 4.77146788 3.1875 8.75 C3.14689453 9.94882813 3.14689453 9.94882813 3.10546875 11.171875 C3.07066406 11.77515625 3.03585938 12.3784375 3 13 C-5.18388297 16.75094636 -13.08458415 18.28960773 -22 19.125 C-22.87011719 19.21136719 -23.74023438 19.29773438 -24.63671875 19.38671875 C-26.75729499 19.59644607 -28.87858079 19.79897842 -31 20 C-27.87913218 16.55102138 -24.62799585 14.48348467 -20.5625 12.25 C-19.32055776 11.55918821 -18.07969921 10.86642514 -16.83984375 10.171875 C-16.20804199 9.81802734 -15.57624023 9.46417969 -14.92529297 9.09960938 C-9.86565004 6.20985135 -4.94115158 3.08616777 0 0 Z " fill="#E41027" transform="translate(180,58)"/>
<path d="M0 0 C6.27 0 12.54 0 19 0 C19.33 2.97 19.66 5.94 20 9 C15.91353132 13.08646868 11.40840868 14.73002704 5.6328125 15.1875 C3.7541684 15.1875 1.87585564 15.1023194 0 15 C0 10.05 0 5.1 0 0 Z " fill="#060315" transform="translate(16,0)"/>
<path d="M0 0 C1.921875 0.73046875 1.921875 0.73046875 4 2 C4.828125 3.98828125 4.828125 3.98828125 5.25 6.3125 C5.39695312 7.11171875 5.54390625 7.9109375 5.6953125 8.734375 C6.0246107 11.18300268 6.15919559 13.53246834 6 16 C7.65 16.33 9.3 16.66 11 17 C11.53532823 18.55759343 12.05265378 20.12138045 12.5625 21.6875 C12.85253906 22.55761719 13.14257812 23.42773438 13.44140625 24.32421875 C14.05141961 27.24631074 13.77703633 29.14400553 13 32 C12.34 32 11.68 32 11 32 C10.67 31.01 10.34 30.02 10 29 C10.33 28.34 10.66 27.68 11 27 C6.71 27 2.42 27 -2 27 C-2.20665762 17.70040702 -1.53803915 9.15957245 0 0 Z " fill="#1C151A" transform="translate(21,95)"/>
<path d="M0 0 C1.1875 2.0625 1.1875 2.0625 2 4 C2 2.68 2 1.36 2 0 C8.435 -0.495 8.435 -0.495 15 -1 C16.42385188 1.84770376 15.50780712 3.22068604 14.56640625 6.2265625 C14.0878418 7.7734375 14.0878418 7.7734375 13.59960938 9.3515625 C13.25736328 10.43179688 12.91511719 11.51203125 12.5625 12.625 C12.22412109 13.71296875 11.88574219 14.8009375 11.53710938 15.921875 C10.69793211 18.61669776 9.85197086 21.30919992 9 24 C10.65 24 12.3 24 14 24 C14 24.33 14 24.66 14 25 C11.69 25.33 9.38 25.66 7 26 C7.14100857 23.72886197 7.28796755 21.45809275 7.4375 19.1875 C7.51871094 17.92292969 7.59992188 16.65835938 7.68359375 15.35546875 C8 12 8 12 9 9 C8.360625 9.33 7.72125 9.66 7.0625 10 C3.06328874 11.3058649 -0.8209137 11.55830623 -5 11 C-7 9 -7 9 -7.1953125 6.8359375 C-7.17210938 6.02382812 -7.14890625 5.21171875 -7.125 4.375 C-7.10695313 3.55773437 -7.08890625 2.74046875 -7.0703125 1.8984375 C-7.04710938 1.27195312 -7.02390625 0.64546875 -7 0 C-3.98968256 -0.93423645 -3.13349732 -1.04449911 0 0 Z " fill="#130F1D" transform="translate(85,114)"/>
<path d="M0 0 C0.69738281 0.00451172 1.39476562 0.00902344 2.11328125 0.01367188 C3.82555803 0.0253998 5.53779033 0.04333347 7.25 0.0625 C7.229375 1.01125 7.20875 1.96 7.1875 2.9375 C7.02448174 5.96916283 7.02448174 5.96916283 8.25 8.0625 C7.92 8.7225 7.59 9.3825 7.25 10.0625 C2.94033085 10.22825651 -0.02930547 10.29491672 -3.75 8.0625 C-6.72170131 6.79952694 -9.59684591 5.76320091 -12.75 5.0625 C-12.42 3.7425 -12.09 2.4225 -11.75 1.0625 C-7.88276369 -0.20332219 -4.01848738 -0.0493765 0 0 Z " fill="#E5DCA6" transform="translate(198.75,95.9375)"/>
<path d="M0 0 C4.6729935 2.69629124 7.35957014 5.39406708 9.98046875 10.08984375 C9.65046875 10.74984375 9.32046875 11.40984375 8.98046875 12.08984375 C8.48417969 11.59613281 7.98789063 11.10242187 7.4765625 10.59375 C3.0108001 6.38220557 0.2110128 4.08984375 -6.01953125 4.08984375 C-7.00953125 4.58484375 -7.00953125 4.58484375 -8.01953125 5.08984375 C-9.13328125 5.19296875 -10.24703125 5.29609375 -11.39453125 5.40234375 C-15.43740818 6.16909627 -16.42830089 7.03589369 -19.01953125 10.08984375 C-22.45473605 12.37998028 -24.00486225 12.26827348 -28.01953125 12.08984375 C-26.64592477 7.9690243 -23.88748939 7.00110836 -20.26953125 5.02734375 C-19.64820313 4.67607422 -19.026875 4.32480469 -18.38671875 3.96289062 C-6.24293357 -2.81354646 -6.24293357 -2.81354646 0 0 Z " fill="#C2C2AE" transform="translate(191.01953125,51.91015625)"/>
<path d="M0 0 C0.66 0.33 1.32 0.66 2 1 C2.625 3.0625 2.625 3.0625 3 5 C0.36 5 -2.28 5 -5 5 C-5.33 7.31 -5.66 9.62 -6 12 C-7.7290774 12.02725341 -9.45828176 12.04650987 -11.1875 12.0625 C-12.63189453 12.07990234 -12.63189453 12.07990234 -14.10546875 12.09765625 C-16.85576513 12.00486622 -19.32479591 11.62111685 -22 11 C-21.8125 9.1875 -21.8125 9.1875 -21 7 C-18.5625 5.375 -18.5625 5.375 -16 4 C-15.34 3.34 -14.68 2.68 -14 2 C-13.67 2.33 -13.34 2.66 -13 3 C-12.34 2.34 -11.68 1.68 -11 1 C-11 1.99 -11 2.98 -11 4 C-8.03 4 -5.06 4 -2 4 C-1.67 3.34 -1.34 2.68 -1 2 C-0.67 1.34 -0.34 0.68 0 0 Z " fill="#E0D9AA" transform="translate(116,127)"/>
<path d="M0 0 C0.33 8.91 0.66 17.82 1 27 C-1.27329116 23.96894513 -2.44778299 22.13393454 -3.8125 18.8125 C-4.74389441 16.71400989 -4.74389441 16.71400989 -6 15 C-9.12133744 13.86521065 -9.12133744 13.86521065 -12 14 C-11.360625 13.566875 -10.72125 13.13375 -10.0625 12.6875 C-7.73253997 11.08760823 -7.73253997 11.08760823 -7 8 C-6.34 7.34 -5.68 6.68 -5 6 C-5 5.01 -5 4.02 -5 3 C-5.66 2.67 -6.32 2.34 -7 2 C-1.125 0 -1.125 0 0 0 Z " fill="#140719" transform="translate(159,81)"/>
<path d="M0 0 C0.495 1.485 0.495 1.485 1 3 C0.1229541 3.10054687 -0.7540918 3.20109375 -1.65771484 3.3046875 C-5.22600914 4.04701783 -7.41261305 5.1821936 -10.4765625 7.125 C-11.476875 7.74890625 -12.4771875 8.3728125 -13.5078125 9.015625 C-14.53648437 9.67046875 -15.56515625 10.3253125 -16.625 11 C-18.67672666 12.29636461 -20.7313018 13.58823491 -22.7890625 14.875 C-24.14572021 15.73738281 -24.14572021 15.73738281 -25.52978516 16.6171875 C-27.74773939 17.85878592 -29.51769363 18.54827671 -32 19 C-32.33 18.34 -32.66 17.68 -33 17 C-31.35476415 15.30637486 -29.68906824 13.64895844 -28 12 C-27.071875 11.071875 -26.14375 10.14375 -25.1875 9.1875 C-21.92093788 6.94574168 -21.55992658 6.76168246 -17.9375 7 C-13.89106335 7.42893804 -13.89106335 7.42893804 -11.25 4.625 C-10.5075 3.75875 -9.765 2.8925 -9 2 C-5.92678462 -0.01679759 -3.64626491 -0.20257027 0 0 Z " fill="#F0CFA2" transform="translate(183,56)"/>
<path d="M0 0 C1.98 0 3.96 0 6 0 C6 0.99 6 1.98 6 3 C7.43750191 4.68798827 7.43750191 4.68798827 9 6 C8.360625 6.598125 7.72125 7.19625 7.0625 7.8125 C3.41186149 11.68438933 3.85431181 15.45749424 3.8984375 20.48046875 C4.0154077 23.38222956 4.40189119 26.15898317 5 29 C3.68 29 2.36 29 1 29 C1.020625 28.195625 1.04125 27.39125 1.0625 26.5625 C1.29633621 24.06645115 1.29633621 24.06645115 0 23 C-0.08713831 21.29227642 -0.10700007 19.58101351 -0.09765625 17.87109375 C-0.09443359 16.83662109 -0.09121094 15.80214844 -0.08789062 14.73632812 C-0.07951172 13.64771484 -0.07113281 12.55910156 -0.0625 11.4375 C-0.05798828 10.34501953 -0.05347656 9.25253906 -0.04882812 8.12695312 C-0.03699826 5.41791505 -0.02051543 2.70898401 0 0 Z " fill="#20171B" transform="translate(178,92)"/>
<path d="M0 0 C0.99 0.33 1.98 0.66 3 1 C3 1.66 3 2.32 3 3 C3.64324219 2.84917969 4.28648438 2.69835937 4.94921875 2.54296875 C9.03079673 2.01312054 12.30356056 1.7954358 15.796875 4.27587891 C19.86121993 7.87451765 23.45500913 11.89705349 27 16 C26.01 16.33 25.02 16.66 24 17 C23.34 16.67 22.68 16.34 22 16 C22 15.34 22 14.68 22 14 C21.236875 13.79375 20.47375 13.5875 19.6875 13.375 C14.4955199 11.43900742 9.81350256 8.72672399 5 6 C4.25234375 5.5771875 3.5046875 5.154375 2.734375 4.71875 C1.15274315 3.81863431 -0.42427601 2.9104183 -2 2 C-1.34 1.34 -0.68 0.68 0 0 Z " fill="#EAC9A3" transform="translate(91,64)"/>
<path d="M0 0 C0.33 0 0.66 0 1 0 C1 1.98 1 3.96 1 6 C1.66 6 2.32 6 3 6 C3 7.98 3 9.96 3 12 C3.66 12 4.32 12 5 12 C4.67 13.32 4.34 14.64 4 16 C-0.29 16 -4.58 16 -9 16 C-8.67 17.32 -8.34 18.64 -8 20 C-8.99 20 -9.98 20 -11 20 C-11.66 19.34 -12.32 18.68 -13 18 C-12.34 18 -11.68 18 -11 18 C-11 17.34 -11 16.68 -11 16 C-11.99 16 -12.98 16 -14 16 C-14.66 17.32 -15.32 18.64 -16 20 C-16.33 18.35 -16.66 16.7 -17 15 C-13.61416198 11.86892164 -11.28890538 11.66449222 -6.75 11.8125 C-5.13351563 11.85310547 -5.13351563 11.85310547 -3.484375 11.89453125 C-2.66453125 11.92933594 -1.8446875 11.96414062 -1 12 C-0.10554296 7.92212105 0.08196118 4.18001995 0 0 Z " fill="#050110" transform="translate(96,98)"/>
<path d="M0 0 C4.01636782 0.22734157 6.32292551 0.42709081 9.4375 3.0625 C10.2109375 4.0215625 10.2109375 4.0215625 11 5 C6.25 6 6.25 6 4 6 C4.99 6.66 5.98 7.32 7 8 C7.1875 10.625 7.1875 10.625 7 13 C6.01 13.33 5.02 13.66 4 14 C4 14.66 4 15.32 4 16 C4.66 16.33 5.32 16.66 6 17 C5.67 17.66 5.34 18.32 5 19 C4.34 19 3.68 19 3 19 C3 19.99 3 20.98 3 22 C2.34 22 1.68 22 1 22 C1.02320313 21.23816406 1.04640625 20.47632812 1.0703125 19.69140625 C1.18598557 13.07325416 0.57704785 7.41332791 -1 1 C-0.67 0.67 -0.34 0.34 0 0 Z " fill="#0D050F" transform="translate(185,55)"/>
<path d="M0 0 C2.5 0.8125 2.5 0.8125 5 2 C5.99 2.33 6.98 2.66 8 3 C8 3.66 8 4.32 8 5 C8.66 5 9.32 5 10 5 C12 7 12 7 12 10 C14.96341714 11.64634286 17.63176256 12.55681086 21 13 C21.66 12.67 22.32 12.34 23 12 C23.33 13.98 23.66 15.96 24 18 C24.99 18 25.98 18 27 18 C27 18.66 27 19.32 27 20 C29.31 20.66 31.62 21.32 34 22 C33.01 22.66 32.02 23.32 31 24 C6.90517241 9.31096059 6.90517241 9.31096059 -3 2 C-2.01 1.34 -1.02 0.68 0 0 Z " fill="#F2D0A7" transform="translate(53,39)"/>
<path d="M0 0 C1.21945313 0.01675781 2.43890625 0.03351563 3.6953125 0.05078125 C5.51675781 0.05658203 5.51675781 0.05658203 7.375 0.0625 C10.8203125 0.36328125 10.8203125 0.36328125 15.8203125 2.36328125 C15.4903125 6.65328125 15.1603125 10.94328125 14.8203125 15.36328125 C9.5403125 14.37328125 4.2603125 13.38328125 -1.1796875 12.36328125 C-1.1796875 12.03328125 -1.1796875 11.70328125 -1.1796875 11.36328125 C2.7803125 11.69328125 6.7403125 12.02328125 10.8203125 12.36328125 C10.4903125 11.04328125 10.1603125 9.72328125 9.8203125 8.36328125 C10.1503125 6.38328125 10.4803125 4.40328125 10.8203125 2.36328125 C2.4053125 2.85828125 2.4053125 2.85828125 -6.1796875 3.36328125 C-3.1796875 0.36328125 -3.1796875 0.36328125 0 0 Z " fill="#D3CDA9" transform="translate(195.1796875,93.63671875)"/>
<path d="M0 0 C0 1.32 0 2.64 0 4 C0.99 4.66 1.98 5.32 3 6 C1.88625 6.474375 0.7725 6.94875 -0.375 7.4375 C-7.6878958 11.06792336 -13.31257926 17.26040109 -19 23 C-16.95423272 15.93846829 -8.73464721 0 0 0 Z " fill="#D5CFA9" transform="translate(26,29)"/>
<path d="M0 0 C1.65 1.32 3.3 2.64 5 4 C4.67 4.66 4.34 5.32 4 6 C3.01 5.67 2.02 5.34 1 5 C1 7.64 1 10.28 1 13 C0.443125 13.12375 -0.11375 13.2475 -0.6875 13.375 C-3.0854855 13.93693693 -3.0854855 13.93693693 -5.4375 15.25 C-8 16 -8 16 -10.8125 14.625 C-11.534375 14.08875 -12.25625 13.5525 -13 13 C-12.01 12.34 -11.02 11.68 -10 11 C-6.65133095 8.54975436 -4.6994385 6.76304238 -3 3 C-1.375 1.25 -1.375 1.25 0 0 Z " fill="#26171B" transform="translate(215,127)"/>
<path d="M0 0 C5.44210674 2.05354544 10.21413179 4.95205912 15.1875 7.9375 C16.10208984 8.47568359 17.01667969 9.01386719 17.95898438 9.56835938 C19.26899414 10.35243164 19.26899414 10.35243164 20.60546875 11.15234375 C21.40106201 11.62663818 22.19665527 12.10093262 23.01635742 12.58959961 C25 14 25 14 27 17 C23.2089881 15.55049545 19.6125362 13.84827434 16 12 C16 11.34 16 10.68 16 10 C15.030625 9.87625 14.06125 9.7525 13.0625 9.625 C12.051875 9.41875 11.04125 9.2125 10 9 C9.67 8.34 9.34 7.68 9 7 C7.02 7 5.04 7 3 7 C2.67 7.66 2.34 8.32 2 9 C0 8 0 8 -1 5 C-1 6.32 -1 7.64 -1 9 C-0.34 9.33 0.32 9.66 1 10 C-0.32 10 -1.64 10 -3 10 C-2.69201674 8.51988629 -2.378482 7.04092675 -2.0625 5.5625 C-1.88847656 4.73878906 -1.71445312 3.91507813 -1.53515625 3.06640625 C-1 1 -1 1 0 0 Z " fill="#D4151F" transform="translate(42,37)"/>
<path d="M0 0 C6.6 0.33 13.2 0.66 20 1 C20 1.66 20 2.32 20 3 C21.2684375 2.98259766 21.2684375 2.98259766 22.5625 2.96484375 C28.81560618 2.91510313 34.82005931 3.03059754 41 4 C40.34 3.01 39.68 2.02 39 1 C43.23429756 2.31061591 47.07407404 3.94356259 51 6 C47.47744794 7.14974399 44.56220548 6.92643239 40.8984375 6.546875 C39.69340576 6.42352783 38.48837402 6.30018066 37.24682617 6.1730957 C35.33027222 5.96366333 35.33027222 5.96366333 33.375 5.75 C32.07731689 5.61231201 30.77963379 5.47462402 29.44262695 5.33276367 C19.55648608 4.25026778 9.77125356 2.84437316 0 1 C0 0.67 0 0.34 0 0 Z " fill="#C42726" transform="translate(60,71)"/>
<path d="M0 0 C1.32 0 2.64 0 4 0 C3.690625 1.010625 3.38125 2.02125 3.0625 3.0625 C1.40619903 9.55848891 1.32998523 16.33082492 1 23 C0.34 23 -0.32 23 -1 23 C-1.33 23.66 -1.66 24.32 -2 25 C-4.77031862 16.68904413 -2.97277221 7.99817285 0 0 Z " fill="#D9BB9A" transform="translate(37,39)"/>
<path d="M0 0 C0.99 0.33 1.98 0.66 3 1 C3.99 1 4.98 1 6 1 C8.56665763 1.31417011 11.12638866 1.64608359 13.6875 2 C14.38939453 2.09539062 15.09128906 2.19078125 15.81445312 2.2890625 C17.54321104 2.52426766 19.27163861 2.76189855 21 3 C21 3.33 21 3.66 21 4 C19.906875 4.12375 18.81375 4.2475 17.6875 4.375 C13.92618198 4.75464801 13.92618198 4.75464801 11 7 C10.67 6.67 10.34 6.34 10 6 C10 6.99 10 7.98 10 9 C9.01 9 8.02 9 7 9 C7 8.34 7 7.68 7 7 C6.443125 7.268125 5.88625 7.53625 5.3125 7.8125 C4.549375 7.874375 3.78625 7.93625 3 8 C0.25 5.5625 0.25 5.5625 -2 3 C-1 1 -1 1 0 0 Z " fill="#120F20" transform="translate(107,65)"/>
<path d="M0 0 C0.33 0 0.66 0 1 0 C1.02698422 2.43757413 1.04683099 4.87484915 1.0625 7.3125 C1.07087891 8.00279297 1.07925781 8.69308594 1.08789062 9.40429688 C1.10307906 12.5483025 1.00193327 14.99420019 0 18 C-1.65 17.67 -3.3 17.34 -5 17 C-5.33 18.32 -5.66 19.64 -6 21 C-6.66 21 -7.32 21 -8 21 C-8 19.35 -8 17.7 -8 16 C-9.32 15.67 -10.64 15.34 -12 15 C-9.36 15 -6.72 15 -4 15 C-3.67 11.04 -3.34 7.08 -3 3 C-2.67 3.66 -2.34 4.32 -2 5 C-1.34 5 -0.68 5 0 5 C0 3.35 0 1.7 0 0 Z " fill="#0C0408" transform="translate(34,122)"/>
<path d="M0 0 C0.66 0 1.32 0 2 0 C2 0.66 2 1.32 2 2 C3.65 2 5.3 2 7 2 C2.27698495 6.72301505 -6.6237573 6.52753333 -13 7.125 C-13.87011719 7.21136719 -14.74023438 7.29773438 -15.63671875 7.38671875 C-17.75729499 7.59644607 -19.87858079 7.79897842 -22 8 C-18.8385846 4.61866005 -16.49761395 3.22662199 -12 2 C-11.34 2.66 -10.68 3.32 -10 4 C-5.19816163 3.80044042 -5.19816163 3.80044042 -1.1875 1.4375 C-0.795625 0.963125 -0.40375 0.48875 0 0 Z " fill="#C32225" transform="translate(171,70)"/>
<path d="M0 0 C0.66 0.33 1.32 0.66 2 1 C2.66268329 8.12384541 0.25388064 14.30879185 -2 21 C-0.35 21 1.3 21 3 21 C3 21.33 3 21.66 3 22 C0.69 22.33 -1.62 22.66 -4 23 C-3.85899143 20.72886197 -3.71203245 18.45809275 -3.5625 16.1875 C-3.48128906 14.92292969 -3.40007812 13.65835938 -3.31640625 12.35546875 C-3 9 -3 9 -2 6 C-2.99 5.67 -3.98 5.34 -5 5 C-3.33333333 3.33333333 -1.66666667 1.66666667 0 0 Z " fill="#1B1521" transform="translate(96,117)"/>
<path d="M0 0 C0.51175781 0.24234375 1.02351563 0.4846875 1.55078125 0.734375 C1.55078125 1.394375 1.55078125 2.054375 1.55078125 2.734375 C0.64328125 2.981875 -0.26421875 3.229375 -1.19921875 3.484375 C-4.60493333 4.79426522 -6.03841311 6.07417568 -8.44921875 8.734375 C-11.88442355 11.02451153 -13.43454975 10.91280473 -17.44921875 10.734375 C-16.06798813 6.59068315 -13.25418809 5.52033764 -9.63671875 3.484375 C-9.00701172 3.10796875 -8.37730469 2.7315625 -7.72851562 2.34375 C-3.0442597 -0.33015895 -3.0442597 -0.33015895 0 0 Z " fill="#D9D2A9" transform="translate(180.44921875,53.265625)"/>
<path d="M0 0 C0.90492187 0.02320312 1.80984375 0.04640625 2.7421875 0.0703125 C4.10730469 0.09738281 4.10730469 0.09738281 5.5 0.125 C6.19867188 0.14820312 6.89734375 0.17140625 7.6171875 0.1953125 C7.9471875 0.8553125 8.2771875 1.5153125 8.6171875 2.1953125 C7.6271875 3.5153125 6.6371875 4.8353125 5.6171875 6.1953125 C3.1421875 5.2053125 3.1421875 5.2053125 0.6171875 4.1953125 C0.9471875 5.5153125 1.2771875 6.8353125 1.6171875 8.1953125 C0.6271875 8.1953125 -0.3628125 8.1953125 -1.3828125 8.1953125 C-1.7128125 7.2053125 -2.0428125 6.2153125 -2.3828125 5.1953125 C-3.0428125 5.8553125 -3.7028125 6.5153125 -4.3828125 7.1953125 C-4.5078125 4.8203125 -4.5078125 4.8203125 -4.3828125 2.1953125 C-2.3828125 0.1953125 -2.3828125 0.1953125 0 0 Z " fill="#E2DAA3" transform="translate(57.3828125,98.8046875)"/>
<path d="M0 0 C-0.33 4.62 -0.66 9.24 -1 14 C-2.65 14.66 -4.3 15.32 -6 16 C-6.66 15.34 -7.32 14.68 -8 14 C-6.35 14 -4.7 14 -3 14 C-3.58803797 10.97580475 -4.22678118 7.98241547 -5 5 C-6.65 5 -8.3 5 -10 5 C-10 4.34 -10 3.68 -10 3 C-10.99 2.67 -11.98 2.34 -13 2 C-11.39658445 1.66307215 -9.79223445 1.33058907 -8.1875 1 C-7.29417969 0.814375 -6.40085937 0.62875 -5.48046875 0.4375 C-3 0 -3 0 0 0 Z " fill="#D2CEA9" transform="translate(94,123)"/>
<path d="M0 0 C5.15171623 -0.09038099 9.91913204 0.15318867 15 1 C15 1.66 15 2.32 15 3 C11.04 3 7.08 3 3 3 C2.34 4.98 1.68 6.96 1 9 C0.34 9 -0.32 9 -1 9 C-1 9.66 -1 10.32 -1 11 C-1.66 11 -2.32 11 -3 11 C-3.33 11.66 -3.66 12.32 -4 13 C-5.0169313 10.34501768 -5.13022151 9.30844625 -4.00390625 6.640625 C-3.52824219 5.85171875 -3.05257812 5.0628125 -2.5625 4.25 C-2.08941406 3.45078125 -1.61632813 2.6515625 -1.12890625 1.828125 C-0.75636719 1.22484375 -0.38382813 0.6215625 0 0 Z " fill="#DCD4B2" transform="translate(52,97)"/>
<path d="M0 0 C1.32 0 2.64 0 4 0 C5.42497486 4.45304644 6.53743672 8.27055688 6 13 C5 14.875 5 14.875 3 16 C0.28121737 16.24131207 -2.2592111 16.1347929 -5 16 C-2 14 -2 14 1 13 C1.0272415 11.58344207 1.04650467 10.16672955 1.0625 8.75 C1.07410156 7.96109375 1.08570313 7.1721875 1.09765625 6.359375 C1.00385306 4.09308998 0.63241063 2.1711105 0 0 Z " fill="#E6BD9E" transform="translate(181,58)"/>
<path d="M0 0 C0.33 0 0.66 0 1 0 C1.1698905 2.49981738 1.33597953 4.99979601 1.5 7.5 C1.54769531 8.19609375 1.59539062 8.8921875 1.64453125 9.609375 C1.95613367 14.41695525 2.04340282 19.18228746 2 24 C2.33 24 2.66 24 3 24 C3 26.64 3 29.28 3 32 C-3.3677446 24.71038352 -1.41709903 10.28658727 -1 1 C-0.67 0.67 -0.34 0.34 0 0 Z " fill="#221D25" transform="translate(134,87)"/>
<path d="M0 0 C1.65 0.33 3.3 0.66 5 1 C5 1.99 5 2.98 5 4 C4.34 4 3.68 4 3 4 C2.87882813 5.03640625 2.75765625 6.0728125 2.6328125 7.140625 C2.46392819 8.51046438 2.29463589 9.88025349 2.125 11.25 C2.04636719 11.93191406 1.96773437 12.61382812 1.88671875 13.31640625 C1.43354167 16.90696311 0.90614262 19.892507 -1 23 C-1.02706445 20.10410348 -1.04687029 17.20846205 -1.0625 14.3125 C-1.07087891 13.49587891 -1.07925781 12.67925781 -1.08789062 11.83789062 C-1.10442051 7.75500916 -1.03035098 3.98348293 0 0 Z " fill="#E6DBB3" transform="translate(138,96)"/>
<path d="M0 0 C1.32 0 2.64 0 4 0 C4 0.99 4 1.98 4 3 C6.64 3 9.28 3 12 3 C12.33 3.99 12.66 4.98 13 6 C9.7 7.32 6.4 8.64 3 10 C1.87119943 6.68885166 0.78697325 3.41021743 0 0 Z " fill="#130417" transform="translate(168,47)"/>
<path d="M0 0 C2.31 0.33 4.62 0.66 7 1 C6.67 2.32 6.34 3.64 6 5 C6.99 5.33 7.98 5.66 9 6 C9.33 5.01 9.66 4.02 10 3 C10.33 3.66 10.66 4.32 11 5 C13.52733235 5.65555119 13.52733235 5.65555119 16 6 C15.34 7.32 14.68 8.64 14 10 C14 9.34 14 8.68 14 8 C7.07 7.505 7.07 7.505 0 7 C0 4.69 0 2.38 0 0 Z M10 2 C12 3 12 3 12 3 Z " fill="#252128" transform="translate(80,88)"/>
<path d="M0 0 C0.99 0.33 1.98 0.66 3 1 C3.25 7.625 3.25 7.625 1 11 C1.66 11.33 2.32 11.66 3 12 C1.87548273 14.9719385 0.77706209 17.33440687 -1 20 C-1.66 19.01 -2.32 18.02 -3 17 C-2.505 15.515 -2.505 15.515 -2 14 C-1.69301138 10.61459776 -1.49095405 7.22864938 -1.28125 3.8359375 C-1 1 -1 1 0 0 Z " fill="#141120" transform="translate(94,39)"/>
<path d="M0 0 C0.66 0.33 1.32 0.66 2 1 C2.33 1.99 2.66 2.98 3 4 C2.01 4.495 2.01 4.495 1 5 C0.67 5.99 0.34 6.98 0 8 C1.65 8 3.3 8 5 8 C5 8.33 5 8.66 5 9 C0.38 9.33 -4.24 9.66 -9 10 C-9 9.34 -9 8.68 -9 8 C-7.28515625 6.30859375 -7.28515625 6.30859375 -5.0625 4.4375 C-3.96615234 3.50744141 -3.96615234 3.50744141 -2.84765625 2.55859375 C-2.23792969 2.04425781 -1.62820312 1.52992187 -1 1 C-0.67 0.67 -0.34 0.34 0 0 Z " fill="#C6C1A2" transform="translate(149,72)"/>
<path d="M0 0 C1.32 0 2.64 0 4 0 C3.67 2.97 3.34 5.94 3 9 C-0.3 8.67 -3.6 8.34 -7 8 C-6.67 6.68 -6.34 5.36 -6 4 C-4.35 3.67 -2.7 3.34 -1 3 C-0.67 2.01 -0.34 1.02 0 0 Z " fill="#E80F2E" transform="translate(177,61)"/>
<path d="M0 0 C0.90492187 0.02320312 1.80984375 0.04640625 2.7421875 0.0703125 C4.10730469 0.09738281 4.10730469 0.09738281 5.5 0.125 C6.19867188 0.14820312 6.89734375 0.17140625 7.6171875 0.1953125 C7.30007812 0.78828125 6.98296875 1.38125 6.65625 1.9921875 C5.38380931 4.69014445 5.01840376 7.25305991 4.6171875 10.1953125 C3.2971875 10.1953125 1.9771875 10.1953125 0.6171875 10.1953125 C0.6171875 8.8753125 0.6171875 7.5553125 0.6171875 6.1953125 C1.2771875 6.1953125 1.9371875 6.1953125 2.6171875 6.1953125 C2.2871875 4.8753125 1.9571875 3.5553125 1.6171875 2.1953125 C-0.3628125 2.1953125 -2.3428125 2.1953125 -4.3828125 2.1953125 C-2.3828125 0.1953125 -2.3828125 0.1953125 0 0 Z " fill="#E4DEA9" transform="translate(23.3828125,122.8046875)"/>
<path d="M0 0 C0.33 0 0.66 0 1 0 C1 4.62 1 9.24 1 14 C-7.415 14.495 -7.415 14.495 -16 15 C-16 14.34 -16 13.68 -16 13 C-15.33613281 12.96261719 -14.67226562 12.92523438 -13.98828125 12.88671875 C-6.84429082 12.57737277 -6.84429082 12.57737277 -1 9 C-0.29695064 6.00138795 -0.07088713 3.07392384 0 0 Z " fill="#DBD4B2" transform="translate(176,124)"/>
<path d="M0 0 C4.01636782 0.22734157 6.32292551 0.42709081 9.4375 3.0625 C10.2109375 4.0215625 10.2109375 4.0215625 11 5 C8.23735711 5.59732819 5.83967231 6 3 6 C2.34 7.32 1.68 8.64 1 10 C0.63883954 8.5225254 0.28624952 7.04295325 -0.0625 5.5625 C-0.25972656 4.73878906 -0.45695313 3.91507813 -0.66015625 3.06640625 C-0.82837891 2.04353516 -0.82837891 2.04353516 -1 1 C-0.67 0.67 -0.34 0.34 0 0 Z " fill="#110D0C" transform="translate(185,55)"/>
<path d="M0 0 C2.64 0.33 5.28 0.66 8 1 C8 1.66 8 2.32 8 3 C9.32 3.66 10.64 4.32 12 5 C12 6.65 12 8.3 12 10 C10.17913395 9.1000662 8.36847967 8.17944686 6.5625 7.25 C5.55316406 6.73953125 4.54382812 6.2290625 3.50390625 5.703125 C1 4 1 4 0.15234375 1.796875 C0.10207031 1.20390625 0.05179688 0.6109375 0 0 Z " fill="#160910" transform="translate(56,31)"/>
<path d="M0 0 C-2.5654594 2.5654594 -4.47686668 2.54046087 -8 3 C-7.70802734 3.85851562 -7.70802734 3.85851562 -7.41015625 4.734375 C-6.9191826 7.44641994 -7.38747938 8.72995052 -8.4375 11.25 C-8.72496094 11.95640625 -9.01242188 12.6628125 -9.30859375 13.390625 C-9.53675781 13.92171875 -9.76492187 14.4528125 -10 15 C-10.33 15 -10.66 15 -11 15 C-11 10.71 -11 6.42 -11 2 C-12.65 2 -14.3 2 -16 2 C-16 1.67 -16 1.34 -16 1 C-10.59255982 0.22750855 -5.46137814 -0.09752461 0 0 Z " fill="#423229" transform="translate(170,79)"/>
<path d="M0 0 C0.66 0 1.32 0 2 0 C2 1.32 2 2.64 2 4 C2.66 4.33 3.32 4.66 4 5 C3.67 5.66 3.34 6.32 3 7 C4.65 7.33 6.3 7.66 8 8 C8.33 7.34 8.66 6.68 9 6 C9.66 6 10.32 6 11 6 C11.33 6.99 11.66 7.98 12 9 C11.67 9.66 11.34 10.32 11 11 C9.54207116 11.05399736 8.08357288 11.09279177 6.625 11.125 C5.81289062 11.14820312 5.00078125 11.17140625 4.1640625 11.1953125 C2 11 2 11 0 9 C-0.1953125 6.8359375 -0.1953125 6.8359375 -0.125 4.375 C-0.10695313 3.55773437 -0.08890625 2.74046875 -0.0703125 1.8984375 C-0.04710938 1.27195312 -0.02390625 0.64546875 0 0 Z " fill="#1F1819" transform="translate(78,114)"/>
<path d="M0 0 C1.98 0.495 1.98 0.495 4 1 C4.33 6.61 4.66 12.22 5 18 C0.98795181 12.65060241 0.98795181 12.65060241 1.0625 8.625 C1.00448314 5.2600219 0.76786084 3.76228257 -1 1 C-0.67 0.67 -0.34 0.34 0 0 Z " fill="#0C0310" transform="translate(155,90)"/>
<path d="M0 0 C4.52615993 3.67832017 8.39424999 7.41086363 12 12 C10.35 11.67 8.7 11.34 7 11 C7 10.34 7 9.68 7 9 C6.071875 8.731875 5.14375 8.46375 4.1875 8.1875 C1.23759634 7.08851629 -0.05615186 6.37581439 -2 4 C-1.34 2.68 -0.68 1.36 0 0 Z " fill="#E2D1AE" transform="translate(106,69)"/>
<path d="M0 0 C0.33 0.66 0.66 1.32 1 2 C3.31 2 5.62 2 8 2 C8 2.99 8 3.98 8 5 C5.69 5 3.38 5 1 5 C1 5.99 1 6.98 1 8 C1.66 8.33 2.32 8.66 3 9 C2.34 9 1.68 9 1 9 C1 9.99 1 10.98 1 12 C0.34 12 -0.32 12 -1 12 C-1.22162329 10.37675914 -1.42689803 8.751279 -1.625 7.125 C-1.74101563 6.22007813 -1.85703125 5.31515625 -1.9765625 4.3828125 C-1.98429687 3.59648438 -1.99203125 2.81015625 -2 2 C-1.34 1.34 -0.68 0.68 0 0 Z " fill="#05020E" transform="translate(79,83)"/>
<path d="M0 0 C2.92965912 2.92965912 3.94133569 5.680053 4.125 9.8125 C4.08375 10.534375 4.0425 11.25625 4 12 C3.34 12 2.68 12 2 12 C1.67 15.3 1.34 18.6 1 22 C0.67 22 0.34 22 0 22 C0 14.74 0 7.48 0 0 Z " fill="#080508" transform="translate(151,117)"/>
<path d="M0 0 C2.29648357 2.89585905 4.04347557 5.8172031 5.6875 9.125 C6.12449219 9.99382812 6.56148437 10.86265625 7.01171875 11.7578125 C8 14 8 14 8 16 C6 16 6 16 4.625 14.6875 C4.08875 14.130625 3.5525 13.57375 3 13 C1.68036291 11.98199424 0.34990354 10.97751635 -1 10 C-0.835 9.278125 -0.67 8.55625 -0.5 7.8125 C-0.02412881 5.13572455 0.077443 2.71050513 0 0 Z " fill="#D8CEA5" transform="translate(154,98)"/>
<path d="M0 0 C4.39383706 1.59623144 8.28995807 3.78024333 12.3125 6.125 C12.95767578 6.49753906 13.60285156 6.87007813 14.26757812 7.25390625 C15.84675945 8.16632213 17.42361864 9.08275509 19 10 C15.44757118 11.18414294 14.30169438 10.69535532 10.8125 9.5625 C9.91144531 9.27503906 9.01039062 8.98757812 8.08203125 8.69140625 C7.39496094 8.46324219 6.70789063 8.23507813 6 8 C6.66 7.67 7.32 7.34 8 7 C8 6.34 8 5.68 8 5 C5.69 4.67 3.38 4.34 1 4 C0.67 2.68 0.34 1.36 0 0 Z " fill="#CC2023" transform="translate(79,60)"/>
<path d="M0 0 C3.77727089 1.81309003 7.37269822 3.9073259 11 6 C11 6.66 11 7.32 11 8 C11.99 8 12.98 8 14 8 C14 8.66 14 9.32 14 10 C8.6701955 9.60026466 3.91351525 7.68506131 0 4 C0 2.68 0 1.36 0 0 Z " fill="#E4CEAE" transform="translate(36,62)"/>
<path d="M0 0 C2.64 0 5.28 0 8 0 C7.67 0.99 7.34 1.98 7 3 C7.99 3.66 8.98 4.32 10 5 C9.030625 4.979375 8.06125 4.95875 7.0625 4.9375 C4.12534105 4.64381501 4.12534105 4.64381501 3 6 C1.33382885 6.04063832 -0.33388095 6.042721 -2 6 C-1.34 4.02 -0.68 2.04 0 0 Z " fill="#E5DEAE" transform="translate(27,28)"/>
<path d="M0 0 C4.29 0 8.58 0 13 0 C12.67 4.62 12.34 9.24 12 14 C11.67 14 11.34 14 11 14 C9.80712589 10.12315913 9 7.08378077 9 3 C7.50256881 1.50256881 6.01175761 1.66797307 3.9375 1.4375 C2.638125 1.293125 1.33875 1.14875 0 1 C0 0.67 0 0.34 0 0 Z " fill="#D0C9A5" transform="translate(8,95)"/>
<path d="M0 0 C5.36891879 0.49869404 10.69235173 1.02227532 16 2 C13.52467789 4.47532211 12.36068317 4.38704795 8.9375 4.6875 C8.03902344 4.77386719 7.14054687 4.86023438 6.21484375 4.94921875 C5.11849609 4.97435547 5.11849609 4.97435547 4 5 C3.67 4.67 3.34 4.34 3 4 C2.34 4.66 1.68 5.32 1 6 C0.67 4.02 0.34 2.04 0 0 Z " fill="#170C0C" transform="translate(48,73)"/>
<path d="M0 0 C0.33 1.32 0.66 2.64 1 4 C-0.32 4 -1.64 4 -3 4 C-2.896875 4.763125 -2.79375 5.52625 -2.6875 6.3125 C-3 9 -3 9 -5.3125 10.875 C-8 12 -8 12 -11 11 C-8.55226831 5.79857016 -4.59788619 3.17811135 0 0 Z " fill="#E1D1AE" transform="translate(161,63)"/>
<path d="M0 0 C3.375 4.5 3.375 4.5 3.1875 8.75 C3.16042969 9.54921875 3.13335937 10.3484375 3.10546875 11.171875 C3.07066406 11.77515625 3.03585938 12.3784375 3 13 C1.68 13.33 0.36 13.66 -1 14 C-0.34 13.67 0.32 13.34 1 13 C1 9.7 1 6.4 1 3 C-2.89147102 3.58444824 -2.89147102 3.58444824 -4.5 5.625 C-4.995 6.07875 -5.49 6.5325 -6 7 C-7.32 6.67 -8.64 6.34 -10 6 C-6.7 4.02 -3.4 2.04 0 0 Z " fill="#BF2121" transform="translate(180,58)"/>
<path d="M0 0 C0.33 0 0.66 0 1 0 C1 3.3 1 6.6 1 10 C-3.29 10 -7.58 10 -12 10 C-11.01 9.67 -10.02 9.34 -9 9 C-8.67 8.01 -8.34 7.02 -8 6 C-7.21625 6.165 -6.4325 6.33 -5.625 6.5 C-3.11791961 7.0623707 -3.11791961 7.0623707 -1 7 C-1.020625 6.030625 -1.04125 5.06125 -1.0625 4.0625 C-1 1 -1 1 0 0 Z " fill="#E4DEB4" transform="translate(149,129)"/>
<path d="M0 0 C5.50366792 -0.32374517 9.43672206 -0.53286034 14 3 C13.01 4.485 13.01 4.485 12 6 C11.236875 5.67 10.47375 5.34 9.6875 5 C7.00930865 3.82563314 7.00930865 3.82563314 4 4 C2.66666667 2.66666667 1.33333333 1.33333333 0 0 Z M0 2 C0.66 2.33 1.32 2.66 2 3 C1.01 3 0.02 3 -1 3 C-0.67 2.67 -0.34 2.34 0 2 Z " fill="#DAD2A9" transform="translate(197,112)"/>
<path d="M0 0 C1.35158203 0.15275391 1.35158203 0.15275391 2.73046875 0.30859375 C3.41753906 0.39238281 4.10460937 0.47617188 4.8125 0.5625 C4.173125 0.85125 3.53375 1.14 2.875 1.4375 C0.66043921 2.39073451 0.66043921 2.39073451 -0.1875 4.5625 C-2.4975 4.5625 -4.8075 4.5625 -7.1875 4.5625 C-7.5175 3.2425 -7.8475 1.9225 -8.1875 0.5625 C-4.98734144 -0.50421952 -3.30205706 -0.38595472 0 0 Z " fill="#291F1B" transform="translate(203.1875,107.4375)"/>
<path d="M0 0 C0 0.66 0 1.32 0 2 C1.98 2 3.96 2 6 2 C6 2.66 6 3.32 6 4 C0.06 3.67 -5.88 3.34 -12 3 C-12 2.34 -12 1.68 -12 1 C-8.0186217 -0.3271261 -4.14954773 -0.06915913 0 0 Z " fill="#C5BB99" transform="translate(113,78)"/>
<path d="M0 0 C3.82097239 0.53069061 6.06171403 1.49701566 9 4 C8.01 4.66 7.02 5.32 6 6 C6 6.66 6 7.32 6 8 C3.36 7.67 0.72 7.34 -2 7 C-1.625 5.0625 -1.625 5.0625 -1 3 C-0.34 2.67 0.32 2.34 1 2 C0.67 1.34 0.34 0.68 0 0 Z " fill="#DDD89D" transform="translate(52,33)"/>
<path d="M0 0 C0.66 0.33 1.32 0.66 2 1 C2 4.57575896 0.91159393 6.05295935 -1 9 C-7.76923077 5.55384615 -7.76923077 5.55384615 -8.9375 2.75 C-8.958125 2.1725 -8.97875 1.595 -9 1 C-8.13375 1.4640625 -8.13375 1.4640625 -7.25 1.9375 C-5.15705816 2.92583364 -3.25464725 3.5168613 -1 4 C-0.67 2.68 -0.34 1.36 0 0 Z " fill="#ECD8AA" transform="translate(51,32)"/>
<path d="M0 0 C2.45281911 3.67922867 2.26823919 5.62259351 2.25 10 C2.25515625 11.2375 2.2603125 12.475 2.265625 13.75 C2 17 2 17 0 20 C-1.19799449 15.85340627 -0.8896192 12.00630953 -0.5625 7.75 C-0.51029297 7.00492187 -0.45808594 6.25984375 -0.40429688 5.4921875 C-0.2751783 3.66105139 -0.13834886 1.83046187 0 0 Z " fill="#2F281F" transform="translate(20,100)"/>
<path d="M0 0 C2.97 0.33 5.94 0.66 9 1 C8.67 2.32 8.34 3.64 8 5 C5.03 5 2.06 5 -1 5 C-0.67 3.35 -0.34 1.7 0 0 Z " fill="#21201F" transform="translate(190,122)"/>
<path d="M0 0 C3.06273018 3.3899808 3.60550995 6.27315343 4.1875 10.75 C4.34605469 11.92046875 4.50460938 13.0909375 4.66796875 14.296875 C4.83232422 15.63492188 4.83232422 15.63492188 5 17 C3.68 17 2.36 17 1 17 C1.020625 16.195625 1.04125 15.39125 1.0625 14.5625 C1.29633621 12.06645115 1.29633621 12.06645115 0 11 C-0.07226502 9.14712498 -0.0838122 7.29166122 -0.0625 5.4375 C-0.05347656 4.42558594 -0.04445312 3.41367188 -0.03515625 2.37109375 C-0.02355469 1.58863281 -0.01195312 0.80617188 0 0 Z " fill="#16111D" transform="translate(178,104)"/>
<path d="M0 0 C0.69738281 0.00902344 1.39476563 0.01804687 2.11328125 0.02734375 C3.82566958 0.05080112 5.53788004 0.08666896 7.25 0.125 C4.09940143 3.27559857 1.75631508 3.10892651 -2.6875 3.25 C-5.81656244 3.21490771 -8.70223378 2.88694155 -11.75 2.125 C-8.00764681 -0.32489101 -4.30774581 -0.10586143 0 0 Z " fill="#E4CDA7" transform="translate(99.75,76.875)"/>
<path d="M0 0 C0.33 0.99 0.66 1.98 1 3 C-0.98 3.66 -2.96 4.32 -5 5 C-5 5.66 -5 6.32 -5 7 C-7.31 7 -9.62 7 -12 7 C-8.51013292 3.25162425 -5.32108894 0 0 0 Z " fill="#D41823" transform="translate(171,65)"/>
<path d="M0 0 C0.66 0.99 1.32 1.98 2 3 C2.515625 3.61875 3.03125 4.2375 3.5625 4.875 C5.18004126 7.26614794 5.60612494 9.16409959 6 12 C5.01 12 4.02 12 3 12 C2.6596875 11.1646875 2.6596875 11.1646875 2.3125 10.3125 C0.64103234 7.36753316 -1.55276352 5.31843456 -4 3 C-2.68 2.67 -1.36 2.34 0 2 C0 1.34 0 0.68 0 0 Z " fill="#231A1A" transform="translate(34,61)"/>
<path d="M0 0 C2 2 2 2 2 6 C2.99 6 3.98 6 5 6 C5 6.66 5 7.32 5 8 C7.31 8.66 9.62 9.32 12 10 C11.01 10.66 10.02 11.32 9 12 C6.8728687 10.71173738 4.74828388 9.41957604 2.625 8.125 C2.02171875 7.76019531 1.4184375 7.39539062 0.796875 7.01953125 C-1.70511595 5.49053678 -3.91871354 4.08128646 -6 2 C-4.02 1.34 -2.04 0.68 0 0 Z " fill="#F1C29D" transform="translate(75,51)"/>
<path d="M0 0 C2.86544183 3.23919511 3.34536289 5.79161859 4 10 C4.66 10.33 5.32 10.66 6 11 C5.67 11.66 5.34 12.32 5 13 C4.01 13 3.02 13 2 13 C1.3291288 11.3767313 0.66342971 9.75132422 0 8.125 C-0.37125 7.22007813 -0.7425 6.31515625 -1.125 5.3828125 C-2 3 -2 3 -2 1 C-1.34 0.67 -0.68 0.34 0 0 Z " fill="#DAD6B2" transform="translate(155,119)"/>
<path d="M0 0 C0.86625 0.3403125 0.86625 0.3403125 1.75 0.6875 C2.08 2.9975 2.41 5.3075 2.75 7.6875 C1.76 7.6875 0.77 7.6875 -0.25 7.6875 C-0.91 7.0275 -1.57 6.3675 -2.25 5.6875 C-1.59 5.6875 -0.93 5.6875 -0.25 5.6875 C-0.25 5.0275 -0.25 4.3675 -0.25 3.6875 C-1.24 3.6875 -2.23 3.6875 -3.25 3.6875 C-3.91 5.0075 -4.57 6.3275 -5.25 7.6875 C-5.58 6.0375 -5.91 4.3875 -6.25 2.6875 C-2.80384615 -0.38942308 -2.80384615 -0.38942308 0 0 Z " fill="#090814" transform="translate(85.25,110.3125)"/>
<path d="M0 0 C2.475 0.495 2.475 0.495 5 1 C5 1.99 5 2.98 5 4 C5.66 4 6.32 4 7 4 C7.433125 4.45375 7.86625 4.9075 8.3125 5.375 C10.35628817 7.34309231 12.34530324 8.06726871 15 9 C15 9.33 15 9.66 15 10 C9.33426027 9.76874532 6.59591563 8.32998749 2.3828125 4.5703125 C1 3 1 3 0 0 Z " fill="#D9D3B3" transform="translate(64,129)"/>
<path d="M0 0 C2.39456443 2.39456443 2.75546876 3.65807308 3 7 C1.75 8.8125 1.75 8.8125 0 10 C-0.99 10 -1.98 10 -3 10 C-2.69201674 8.51988629 -2.378482 7.04092675 -2.0625 5.5625 C-1.88847656 4.73878906 -1.71445313 3.91507812 -1.53515625 3.06640625 C-1 1 -1 1 0 0 Z " fill="#D5CFAA" transform="translate(98,124)"/>
<path d="M0 0 C3 2 3 2 4 5 C4.66 5.33 5.32 5.66 6 6 C5.67 6.66 5.34 7.32 5 8 C2.69 7.67 0.38 7.34 -2 7 C-2.33 5.68 -2.66 4.36 -3 3 C-2.34 3 -1.68 3 -1 3 C-0.67 2.01 -0.34 1.02 0 0 Z " fill="#E9DBAB" transform="translate(88,57)"/>
<path d="M0 0 C6.30839521 3.31960761 12.30784406 6.69925996 18 11 C17.01 11.495 17.01 11.495 16 12 C13.8359375 11.00390625 13.8359375 11.00390625 11.375 9.5625 C10.55773438 9.08941406 9.74046875 8.61632813 8.8984375 8.12890625 C8.27195312 7.75636719 7.64546875 7.38382813 7 7 C7 6.34 7 5.68 7 5 C4.03 4.505 4.03 4.505 1 4 C0.67 2.68 0.34 1.36 0 0 Z " fill="#C22829" transform="translate(51,42)"/>
<path d="M0 0 C0.99 0.33 1.98 0.66 3 1 C2.21625 1.7425 1.4325 2.485 0.625 3.25 C-2.01578626 5.72703099 -2.01578626 5.72703099 -3.0625 8.25 C-4 10 -4 10 -6.125 10.75 C-7.053125 10.87375 -7.053125 10.87375 -8 11 C-8 9.02 -8 7.04 -8 5 C-6.8553125 4.87625 -6.8553125 4.87625 -5.6875 4.75 C-2.47626739 3.85384206 -1.70625501 2.78388975 0 0 Z " fill="#0C041D" transform="translate(16,30)"/>
<path d="M0 0 C2 3 2 3 2 5 C1.34 5 0.68 5 0 5 C0 6.32 0 7.64 0 9 C0.99 9.33 1.98 9.66 3 10 C3 11.32 3 12.64 3 14 C2.01 14 1.02 14 0 14 C0 15.65 0 17.3 0 19 C-0.33 19 -0.66 19 -1 19 C-1.02705308 16.58325776 -1.04686438 14.1668206 -1.0625 11.75 C-1.07087891 11.06808594 -1.07925781 10.38617188 -1.08789062 9.68359375 C-1.10428392 6.30657446 -1.05628768 3.22708361 0 0 Z " fill="#EADEB4" transform="translate(165,99)"/>
<path d="M0 0 C0.33 0.66 0.66 1.32 1 2 C1.66 2.33 2.32 2.66 3 3 C2.44855089 7.08072342 2.08669204 7.91330796 -1 11 C-1.66 8.03 -2.32 5.06 -3 2 C-2.01 2 -1.02 2 0 2 C0 1.34 0 0.68 0 0 Z " fill="#342921" transform="translate(46,98)"/>
<path d="M0 0 C1.134375 0.020625 2.26875 0.04125 3.4375 0.0625 C4.6452558 3.68576739 3.98061128 4.70396369 2.4375 8.0625 C0.10416667 5.72916667 -2.22916667 3.39583333 -4.5625 1.0625 C-3.5625 0.0625 -3.5625 0.0625 0 0 Z " fill="#16110D" transform="translate(34.5625,33.9375)"/>
<path d="M0 0 C-3.59462331 2.25998595 -6.56595675 2.20868087 -10.75 2.125 C-11.92046875 2.10695313 -13.0909375 2.08890625 -14.296875 2.0703125 C-15.63492188 2.03550781 -15.63492188 2.03550781 -17 2 C-17 1.34 -17 0.68 -17 0 C-5.47835991 -1.33257403 -5.47835991 -1.33257403 0 0 Z " fill="#E8D9AF" transform="translate(166,78)"/>
<path d="M0 0 C2.34087842 0.27539746 4.67402489 0.6186926 7 1 C8.7015625 1.2784375 8.7015625 1.2784375 10.4375 1.5625 C11.283125 1.706875 12.12875 1.85125 13 2 C13 2.66 13 3.32 13 4 C11.22992286 4.08114106 9.45877902 4.13925505 7.6875 4.1875 C6.70136719 4.22230469 5.71523437 4.25710937 4.69921875 4.29296875 C2 4 2 4 0.14453125 2.48828125 C-0.23316406 1.99714844 -0.61085938 1.50601563 -1 1 C-0.67 0.67 -0.34 0.34 0 0 Z " fill="#080709" transform="translate(70,138)"/>
<path d="M0 0 C-1.25 1.5 -1.25 1.5 -3 3 C-4.32 3 -5.64 3 -7 3 C-7 3.99 -7 4.98 -7 6 C-8.65 5.67 -10.3 5.34 -12 5 C-5.5 -1.96428571 -5.5 -1.96428571 0 0 Z " fill="#D2CBA3" transform="translate(82,96)"/>
<path d="M0 0 C0 0.99 0 1.98 0 3 C-3.63 3 -7.26 3 -11 3 C-11.33 3.66 -11.66 4.32 -12 5 C-12.33 3.68 -12.66 2.36 -13 1 C-8.61414671 0.29826347 -4.44209357 -0.10834375 0 0 Z " fill="#D6CDAC" transform="translate(42,97)"/>
<path d="M0 0 C0.66 0 1.32 0 2 0 C2 4.29 2 8.58 2 13 C1.01 12.34 0.02 11.68 -1 11 C-1.328125 8.65234375 -1.328125 8.65234375 -1.25 5.9375 C-1.23453125 5.03902344 -1.2190625 4.14054687 -1.203125 3.21484375 C-1 1 -1 1 0 0 Z " fill="#2B2214" transform="translate(162,95)"/>
<path d="M0 0 C1.98 0 3.96 0 6 0 C6.66 1.32 7.32 2.64 8 4 C7.34 4.66 6.68 5.32 6 6 C3.69 5.01 1.38 4.02 -1 3 C-0.67 2.01 -0.34 1.02 0 0 Z " fill="#100710" transform="translate(204,109)"/>
<path d="M0 0 C0.66 0 1.32 0 2 0 C2.22197585 2.10277123 2.42713637 4.20732302 2.625 6.3125 C2.74101563 7.48425781 2.85703125 8.65601562 2.9765625 9.86328125 C3 13 3 13 1 16 C0.34 15.67 -0.32 15.34 -1 15 C-0.835 14.38125 -0.67 13.7625 -0.5 13.125 C0.20075317 8.74529271 0.07734251 4.42571011 0 0 Z " fill="#1A1320" transform="translate(100,95)"/>
<path d="M0 0 C0.99 0.33 1.98 0.66 3 1 C3.625 2.9375 3.625 2.9375 4 5 C4.33 5.66 4.66 6.32 5 7 C4.0625 9.125 4.0625 9.125 3 11 C2.79375 10.360625 2.5875 9.72125 2.375 9.0625 C1.10461791 6.65074923 1.10461791 6.65074923 -2.125 6.25 C-3.07375 6.1675 -4.0225 6.085 -5 6 C-4.360625 5.566875 -3.72125 5.13375 -3.0625 4.6875 C-0.73253997 3.08760823 -0.73253997 3.08760823 0 0 Z " fill="#191517" transform="translate(152,89)"/>
<path d="M0 0 C0.33 0 0.66 0 1 0 C1.125 7.75 1.125 7.75 0 10 C0.66 10 1.32 10 2 10 C2 12.97 2 15.94 2 19 C0.09681116 16.14521674 -0.4619099 14.58058692 -1.125 11.3125 C-1.29257813 10.50425781 -1.46015625 9.69601563 -1.6328125 8.86328125 C-1.75398437 8.24839844 -1.87515625 7.63351563 -2 7 C-1.34 7 -0.68 7 0 7 C0 4.69 0 2.38 0 0 Z " fill="#150F10" transform="translate(134,117)"/>
<path d="M0 0 C0.042721 1.66611905 0.04063832 3.33382885 0 5 C-0.33 5.33 -0.66 5.66 -1 6 C-1.36760731 8.32817964 -1.70241581 10.6618385 -2 13 C-4.0625 11.25 -4.0625 11.25 -6 9 C-5.9375 6.8125 -5.9375 6.8125 -5 5 C-4.01 4.67 -3.02 4.34 -2 4 C-2.33 3.01 -2.66 2.02 -3 1 C-1 0 -1 0 0 0 Z " fill="#E8DEAD" transform="translate(153,110)"/>
<path d="M0 0 C0.66 0 1.32 0 2 0 C2.33 2.97 2.66 5.94 3 9 C0.69 9 -1.62 9 -4 9 C-2.68 8.67 -1.36 8.34 0 8 C-0.185625 7.05125 -0.37125 6.1025 -0.5625 5.125 C-1 2 -1 2 0 0 Z " fill="#D8D1AF" transform="translate(132,129)"/>
<path d="M0 0 C2.64 0 5.28 0 8 0 C8.75 2.25 8.75 2.25 9 5 C7.0625 7.3125 7.0625 7.3125 5 9 C4.01 8.67 3.02 8.34 2 8 C3.65 5.69 5.3 3.38 7 1 C4.69 1 2.38 1 0 1 C0 0.67 0 0.34 0 0 Z " fill="#302A21" transform="translate(60,97)"/>
<path d="M0 0 C0.99 0.33 1.98 0.66 3 1 C2.42415568 3.38564077 1.77772405 5.66682784 1 8 C-0.32 7.67 -1.64 7.34 -3 7 C-2.625 4.0625 -2.625 4.0625 -2 1 C-1.34 0.67 -0.68 0.34 0 0 Z " fill="#D7D29F" transform="translate(208,95)"/>
<path d="M0 0 C2 2 2 2 2.3125 4.9375 C2 8 2 8 1 9.875 C-2.25313684 11.70488947 -5.31390109 11.18128355 -9 11 C-5.81237635 8.87491756 -3.73487777 8.4979837 0 8 C0 5.36 0 2.72 0 0 Z " fill="#D5BA9A" transform="translate(185,63)"/>
<path d="M0 0 C1.32 0 2.64 0 4 0 C4 0.66 4 1.32 4 2 C3.01 2.495 3.01 2.495 2 3 C1.34227572 6.02934491 1.34227572 6.02934491 1 9 C-0.98 9.33 -2.96 9.66 -5 10 C-5 9.01 -5 8.02 -5 7 C-3.68 7 -2.36 7 -1 7 C-0.67 4.69 -0.34 2.38 0 0 Z " fill="#080303" transform="translate(111,133)"/>
<path d="M0 0 C2 0.9375 2 0.9375 4 3 C4.36475845 6.02534949 4.22893297 8.96663814 4 12 C0.99801155 8.99801155 0.04007463 7.04194047 -0.125 2.75 C-0.08375 1.8425 -0.0425 0.935 0 0 Z " fill="#433621" transform="translate(160,105)"/>
<path d="M0 0 C0.33 1.32 0.66 2.64 1 4 C2.98 4 4.96 4 7 4 C5 6 5 6 3.125 6.046875 C2.42375 5.94890625 1.7225 5.8509375 1 5.75 C-0.051875 5.61851563 -0.051875 5.61851563 -1.125 5.484375 C-3 5 -3 5 -5 3 C-3.35 2.01 -1.7 1.02 0 0 Z " fill="#22171C" transform="translate(185,73)"/>
<path d="M0 0 C0 0.66 0 1.32 0 2 C-4.29 2 -8.58 2 -13 2 C-13 1.34 -13 0.68 -13 0 C-8.38926889 -1.29676812 -4.66159911 -0.71109139 0 0 Z " fill="#282117" transform="translate(125,94)"/>
<path d="M0 0 C1.85625 0.061875 1.85625 0.061875 3.75 0.125 C4.08 1.115 4.41 2.105 4.75 3.125 C3.43 3.455 2.11 3.785 0.75 4.125 C0.75 3.465 0.75 2.805 0.75 2.125 C-2.22 2.125 -5.19 2.125 -8.25 2.125 C-4.63863788 0.31931894 -3.705469 -0.12351563 0 0 Z " fill="#060205" transform="translate(128.25,138.875)"/>
<path d="M0 0 C-0.99 0.495 -0.99 0.495 -2 1 C-2 1.99 -2 2.98 -2 4 C-3.98 4.99 -3.98 4.99 -6 6 C-6.66 4.35 -7.32 2.7 -8 1 C-5.29120665 -0.35439668 -2.99066732 -0.06501451 0 0 Z " fill="#CAC99A" transform="translate(189,51)"/>
<path d="M0 0 C0.80824219 0.28746094 1.61648437 0.57492188 2.44921875 0.87109375 C3.06410156 1.09925781 3.67898437 1.32742187 4.3125 1.5625 C1.48318148 2.37178705 -0.99834077 2.67398599 -3.9375 2.625 C-5.79375 2.5940625 -5.79375 2.5940625 -7.6875 2.5625 C-7.6875 1.5725 -7.6875 0.5825 -7.6875 -0.4375 C-4.20878379 -1.59707207 -3.34530355 -1.21206651 0 0 Z M4.3125 0.5625 C6.3125 1.5625 6.3125 1.5625 6.3125 1.5625 Z " fill="#070602" transform="translate(188.6875,49.4375)"/>
<path d="M0 0 C0.98120464 3.05263664 0.98120464 4.94736336 0 8 C-3.465 6.02 -3.465 6.02 -7 4 C-6.401875 3.896875 -5.80375 3.79375 -5.1875 3.6875 C-2.71756736 2.91123545 -1.67748765 1.92911079 0 0 Z " fill="#231E20" transform="translate(79,40)"/>
<path d="M0 0 C0 0.33 0 0.66 0 1 C-3.63 1.66 -7.26 2.32 -11 3 C-11.33 2.01 -11.66 1.02 -12 0 C-7.224647 -1.68541871 -4.55270882 -2.48329572 0 0 Z " fill="#181114" transform="translate(37,25)"/>
<path d="M0 0 C5.445 1.485 5.445 1.485 11 3 C9 5 9 5 5.875 5.125 C4.92625 5.08375 3.9775 5.0425 3 5 C2.67 4.01 2.34 3.02 2 2 C1.34 2 0.68 2 0 2 C0 1.34 0 0.68 0 0 Z " fill="#211B15" transform="translate(181,137)"/>
<path d="M0 0 C0 0.66 0 1.32 0 2 C-4.29 2 -8.58 2 -13 2 C-13 1.34 -13 0.68 -13 0 C-8.37078475 -1.0161692 -4.65537393 -0.83796731 0 0 Z " fill="#E5DCBC" transform="translate(49,139)"/>
<path d="M0 0 C2.49388574 4.98777148 1.88836125 6.66983248 1 12 C2.65 12 4.3 12 6 12 C6 12.33 6 12.66 6 13 C3.69 13.33 1.38 13.66 -1 14 C-0.67 9.38 -0.34 4.76 0 0 Z " fill="#262314" transform="translate(93,126)"/>
<path d="M0 0 C0.66 0.33 1.32 0.66 2 1 C2.4140625 3.06640625 2.4140625 3.06640625 2.625 5.5625 C2.69976562 6.38878906 2.77453125 7.21507813 2.8515625 8.06640625 C2.92503906 9.02353516 2.92503906 9.02353516 3 10 C1.68 10 0.36 10 -1 10 C-0.67 6.7 -0.34 3.4 0 0 Z " fill="#352815" transform="translate(114,113)"/>
<path d="M0 0 C0.66 0 1.32 0 2 0 C2.99 2.97 3.98 5.94 5 9 C3.68 9 2.36 9 1 9 C0.67 6.03 0.34 3.06 0 0 Z " fill="#2B231D" transform="translate(26,102)"/>
<path d="M0 0 C3 1 3 1 4 3 C3.44140625 5.1640625 3.44140625 5.1640625 2.5625 7.625 C2.27503906 8.44226563 1.98757812 9.25953125 1.69140625 10.1015625 C1.46324219 10.72804688 1.23507813 11.35453125 1 12 C0.67 12 0.34 12 0 12 C0 8.04 0 4.08 0 0 Z " fill="#180E08" transform="translate(179,99)"/>
<path d="M0 0 C0 0.66 0 1.32 0 2 C0.66 2.33 1.32 2.66 2 3 C1.38253906 2.9278125 0.76507813 2.855625 0.12890625 2.78125 C-5.62108387 2.1511141 -11.21646559 1.90671719 -17 2 C-17 1.67 -17 1.34 -17 1 C-11.27959989 0.1679418 -5.77759884 -0.12036664 0 0 Z " fill="#EBB795" transform="translate(168,76)"/>
<path d="M0 0 C0 0.66 0 1.32 0 2 C1.65 2 3.3 2 5 2 C1.99382731 5.00617269 -0.82381598 4.59585316 -5 5 C-4.625 3.0625 -4.625 3.0625 -4 1 C-2 0 -2 0 0 0 Z " fill="#CD1619" transform="translate(173,70)"/>
<path d="M0 0 C1.77074917 -0.02705729 3.54161711 -0.04642195 5.3125 -0.0625 C6.29863281 -0.07410156 7.28476563 -0.08570313 8.30078125 -0.09765625 C11 0 11 0 14 1 C13.67 1.66 13.34 2.32 13 3 C8.07872966 3.16682272 4.49656104 3.24828052 0 1 C0 0.67 0 0.34 0 0 Z " fill="#040203" transform="translate(138,140)"/>
<path d="M0 0 C2.64 0 5.28 0 8 0 C8 0.66 8 1.32 8 2 C10.97 2.495 10.97 2.495 14 3 C11.64561267 4.42944945 10.51967567 5.08661261 7.75 4.625 C7.1725 4.41875 6.595 4.2125 6 4 C6 3.34 6 2.68 6 2 C3.03 1.505 3.03 1.505 0 1 C0 0.67 0 0.34 0 0 Z " fill="#120F0E" transform="translate(128,138)"/>
<path d="M0 0 C0.98484375 0.02707031 1.9696875 0.05414063 2.984375 0.08203125 C3.73203125 0.11683594 4.4796875 0.15164062 5.25 0.1875 C5.25 0.5175 5.25 0.8475 5.25 1.1875 C0.17523206 2.45055335 -4.47796354 3.45786084 -9.75 3.1875 C-6.47698081 0.21840402 -4.36934238 -0.15604794 0 0 Z " fill="#DDB695" transform="translate(91.75,75.8125)"/>
<path d="M0 0 C1.2065625 0.0309375 1.2065625 0.0309375 2.4375 0.0625 C2.128125 0.59875 1.81875 1.135 1.5 1.6875 C0.25922561 4.4609957 -0.1534675 7.06292837 -0.5625 10.0625 C-0.8925 10.0625 -1.2225 10.0625 -1.5625 10.0625 C-1.92366046 8.5850254 -2.27625048 7.10545325 -2.625 5.625 C-2.82222656 4.80128906 -3.01945313 3.97757813 -3.22265625 3.12890625 C-3.39087891 2.10603516 -3.39087891 2.10603516 -3.5625 1.0625 C-2.5625 0.0625 -2.5625 0.0625 0 0 Z " fill="#292216" transform="translate(187.5625,54.9375)"/>
<path d="M0 0 C0.66 1.32 1.32 2.64 2 4 C1.34 4 0.68 4 0 4 C-0.33 5.98 -0.66 7.96 -1 10 C-1.66 10 -2.32 10 -3 10 C-3.125 4.25 -3.125 4.25 -2 2 C-1.34 2 -0.68 2 0 2 C0 1.34 0 0.68 0 0 Z " fill="#131020" transform="translate(155,127)"/>
<path d="M0 0 C1.2065625 0.0309375 1.2065625 0.0309375 2.4375 0.0625 C2.1075 1.0525 1.7775 2.0425 1.4375 3.0625 C2.4275 3.0625 3.4175 3.0625 4.4375 3.0625 C4.7675 4.0525 5.0975 5.0425 5.4375 6.0625 C3.7875 6.0625 2.1375 6.0625 0.4375 6.0625 C0.4375 4.7425 0.4375 3.4225 0.4375 2.0625 C-0.8825 1.7325 -2.2025 1.4025 -3.5625 1.0625 C-2.5625 0.0625 -2.5625 0.0625 0 0 Z " fill="#201C26" transform="translate(90.5625,78.9375)"/>
<path d="M0 0 C1.97986082 0.11347619 3.95891598 0.2410935 5.9375 0.375 C7.03964844 0.44460937 8.14179687 0.51421875 9.27734375 0.5859375 C10.62505859 0.79089844 10.62505859 0.79089844 12 1 C12.33 1.66 12.66 2.32 13 3 C11.02 3.33 9.04 3.66 7 4 C7 3.67 7 3.34 7 3 C4.69 2.34 2.38 1.68 0 1 C0 0.67 0 0.34 0 0 Z " fill="#F4CCB0" transform="translate(73,74)"/>
<path d="M0 0 C2.475 0.99 2.475 0.99 5 2 C4.67 3.32 4.34 4.64 4 6 C1 6 1 6 -0.6875 4.5 C-1.120625 4.005 -1.55375 3.51 -2 3 C-1.34 2.01 -0.68 1.02 0 0 Z " fill="#140A15" transform="translate(162,55)"/>
<path d="M0 0 C2 0 2 0 4.4375 2.375 C5.283125 3.24125 6.12875 4.1075 7 5 C7.99 5.66 8.98 6.32 10 7 C10 7.66 10 8.32 10 9 C6.41213553 7.34406255 3.16216412 5.37162309 0 3 C0 2.01 0 1.02 0 0 Z " fill="#1C160F" transform="translate(81,47)"/>
<path d="M0 0 C0.99 0.33 1.98 0.66 3 1 C0.525 4.465 0.525 4.465 -2 8 C-2.33 7.34 -2.66 6.68 -3 6 C-3.99 5.67 -4.98 5.34 -6 5 C-4.35 4.67 -2.7 4.34 -1 4 C-0.67 2.68 -0.34 1.36 0 0 Z " fill="#DAD0AC" transform="translate(55,111)"/>
<path d="M0 0 C0.99 0 1.98 0 3 0 C3.33 3.3 3.66 6.6 4 10 C1.07490914 6.09987886 0.52464905 4.61691161 0 0 Z " fill="#140A0D" transform="translate(156,98)"/>
<path d="M0 0 C1.32 0.66 2.64 1.32 4 2 C3.67 3.32 3.34 4.64 3 6 C1.35 6 -0.3 6 -2 6 C-1.34 4.02 -0.68 2.04 0 0 Z " fill="#35292C" transform="translate(46,71)"/>
<path d="M0 0 C0.66 0.33 1.32 0.66 2 1 C-0.31 3.97 -2.62 6.94 -5 10 C-6 7 -6 7 -4.75 4.4375 C-3 2 -3 2 0 0 Z " fill="#150F0B" transform="translate(17,33)"/>
<path d="M0 0 C0.90105469 0.00902344 1.80210938 0.01804688 2.73046875 0.02734375 C3.41753906 0.03894531 4.10460938 0.05054688 4.8125 0.0625 C2.5796123 2.2953877 1.89340185 2.43028152 -1.125 2.8125 C-1.81464844 2.91046875 -2.50429687 3.0084375 -3.21484375 3.109375 C-5.1875 3.0625 -5.1875 3.0625 -8.1875 1.0625 C-5.17259443 0.05753148 -3.14568308 -0.04085303 0 0 Z " fill="#060306" transform="translate(13.1875,137.9375)"/>
<path d="M0 0 C0.99 0 1.98 0 3 0 C4.38671875 1.53125 4.38671875 1.53125 5.6875 3.5 C6.12449219 4.1496875 6.56148438 4.799375 7.01171875 5.46875 C7.33785156 5.9740625 7.66398437 6.479375 8 7 C5 7 5 7 2.3125 4.625 C0 2 0 2 0 0 Z " fill="#272620" transform="translate(111,72)"/>
<path d="M0 0 C0.99 0 1.98 0 3 0 C2.67 2.97 2.34 5.94 2 9 C1.01 8.67 0.02 8.34 -1 8 C-0.67 5.36 -0.34 2.72 0 0 Z " fill="#EF0828" transform="translate(178,61)"/>
<path d="M0 0 C0.33 0.99 0.66 1.98 1 3 C1.66 3 2.32 3 3 3 C3.33 5.64 3.66 8.28 4 11 C3.01 10.67 2.02 10.34 1 10 C0.67 6.7 0.34 3.4 0 0 Z " fill="#271C20" transform="translate(177,126)"/>
<path d="M0 0 C1.32 0 2.64 0 4 0 C4.33 0.66 4.66 1.32 5 2 C6.64363134 2.72159424 8.31050386 3.39351421 10 4 C10 4.33 10 4.66 10 5 C3.47692308 4.50769231 3.47692308 4.50769231 1.0625 1.9375 C0.711875 1.298125 0.36125 0.65875 0 0 Z " fill="#DAD1B2" transform="translate(183,117)"/>
<path d="M0 0 C1.32 0.66 2.64 1.32 4 2 C2.25 6.875 2.25 6.875 0 8 C-1.125 2.25 -1.125 2.25 0 0 Z " fill="#D7CEA5" transform="translate(58,103)"/>
<path d="M0 0 C0.99 0 1.98 0 3 0 C3.25 7.625 3.25 7.625 1 11 C0.67 7.37 0.34 3.74 0 0 Z " fill="#CFC8AD" transform="translate(176,96)"/>
<path d="M0 0 C0.33 0 0.66 0 1 0 C2.10228696 4.40914783 2.07654536 8.48382401 2 13 C1.67 13 1.34 13 1 13 C-1.85714286 3.71428571 -1.85714286 3.71428571 0 0 Z " fill="#D7D2A6" transform="translate(18,96)"/>
<path d="M0 0 C2.31 0 4.62 0 7 0 C6.67 1.32 6.34 2.64 6 4 C6 3.34 6 2.68 6 2 C5.34 2 4.68 2 4 2 C4 2.66 4 3.32 4 4 C2.68 3.67 1.36 3.34 0 3 C0 2.01 0 1.02 0 0 Z " fill="#E7DDB2" transform="translate(117,96)"/>
<path d="M0 0 C3.67420866 0.30618405 4.78135513 0.75771784 7.3125 3.5625 C8.1478125 4.7690625 8.1478125 4.7690625 9 6 C7.35 6 5.7 6 4 6 C4 5.01 4 4.02 4 3 C2.68 3 1.36 3 0 3 C0 2.01 0 1.02 0 0 Z " fill="#DB1325" transform="translate(94,70)"/>
<path d="M0 0 C2.9375 0.375 2.9375 0.375 6 1 C6.33 1.66 6.66 2.32 7 3 C6.34 3.66 5.68 4.32 5 5 C2.525 4.01 2.525 4.01 0 3 C0 2.01 0 1.02 0 0 Z " fill="#DCD8B5" transform="translate(187,52)"/>
<path d="M0 0 C0.66 0 1.32 0 2 0 C2 0.66 2 1.32 2 2 C3.32 2.66 4.64 3.32 6 4 C6 5.65 6 7.3 6 9 C4 7.625 4 7.625 2 6 C2 5.34 2 4.68 2 4 C1.36525925 2.65117592 0.70151152 1.3153341 0 0 Z " fill="#1D1019" transform="translate(62,32)"/>
<path d="M0 0 C0.33 0.99 0.66 1.98 1 3 C-2.3 3 -5.6 3 -9 3 C-6.15236477 0.15236477 -3.96383452 0 0 0 Z " fill="#120F0E" transform="translate(92,138)"/>
<path d="M0 0 C2.64 0 5.28 0 8 0 C7.34 1.98 6.68 3.96 6 6 C5.34 6 4.68 6 4 6 C4 4.35 4 2.7 4 1 C2.68 0.67 1.36 0.34 0 0 Z " fill="#040404" transform="translate(22,137)"/>
<path d="M0 0 C1.485 0.99 1.485 0.99 3 2 C3 2.99 3 3.98 3 5 C2.34 5 1.68 5 1 5 C1 7.31 1 9.62 1 12 C0.67 12 0.34 12 0 12 C-0.19401633 10.18818595 -0.38004375 8.37551468 -0.5625 6.5625 C-0.66691406 5.55316406 -0.77132812 4.54382813 -0.87890625 3.50390625 C-0.91886719 2.67761719 -0.95882812 1.85132812 -1 1 C-0.67 0.67 -0.34 0.34 0 0 Z " fill="#2C2929" transform="translate(213,116)"/>
<path d="M0 0 C0.66 0.33 1.32 0.66 2 1 C1.01 1.33 0.02 1.66 -1 2 C-1 2.99 -1 3.98 -1 5 C-1.99 5.33 -2.98 5.66 -4 6 C-4.33 4.68 -4.66 3.36 -5 2 C-2.625 0.9375 -2.625 0.9375 0 0 Z " fill="#E4DDB2" transform="translate(191,96)"/>
<path d="M0 0 C0.66 0 1.32 0 2 0 C2 1.65 2 3.3 2 5 C0.02 5 -1.96 5 -4 5 C-2.71937515 3.2925002 -1.38232443 1.62626404 0 0 Z " fill="#1D1520" transform="translate(199,87)"/>
<path d="M0 0 C2.475 0.495 2.475 0.495 5 1 C5 2.65 5 4.3 5 6 C3.68 5.67 2.36 5.34 1 5 C0.67 3.35 0.34 1.7 0 0 Z " fill="#1B1723" transform="translate(89,88)"/>
<path d="M0 0 C4.43090471 1.20842856 6.98112756 2.51668565 10 6 C7.69 5.34 5.38 4.68 3 4 C3 3.34 3 2.68 3 2 C2.01 2 1.02 2 0 2 C0 1.34 0 0.68 0 0 Z " fill="#C82225" transform="translate(69,54)"/>
<path d="M0 0 C-3.44175522 2.14699969 -5.7720292 2.09856795 -9.75 1.625 C-10.73484375 1.51414063 -11.7196875 1.40328125 -12.734375 1.2890625 C-13.48203125 1.19367188 -14.2296875 1.09828125 -15 1 C-15 0.67 -15 0.34 -15 0 C-4.44191344 -1.33257403 -4.44191344 -1.33257403 0 0 Z " fill="#0A0403" transform="translate(205,141)"/>
<path d="M0 0 C0 0.66 0 1.32 0 2 C0.66 2.33 1.32 2.66 2 3 C1 4 1 4 -2.5625 4.0625 C-3.696875 4.041875 -4.83125 4.02125 -6 4 C-2.25 0 -2.25 0 0 0 Z " fill="#1C110D" transform="translate(210,136)"/>
<path d="M0 0 C1.5 1 1.5 1 3 3 C3.27345479 5.71846235 3.13491285 8.25677199 3 11 C0.43383368 7.15075052 0.44902324 4.5650696 0 0 Z " fill="#0C0B06" transform="translate(126,100)"/>
<path d="M0 0 C0.33 0.66 0.66 1.32 1 2 C0.67 2.99 0.34 3.98 0 5 C-2.97 4.505 -2.97 4.505 -6 4 C-6 3.34 -6 2.68 -6 2 C-4.02 1.34 -2.04 0.68 0 0 Z " fill="#F00B2D" transform="translate(82,65)"/>
<path d="M0 0 C2.97 1.98 2.97 1.98 6 4 C5.67 4.99 5.34 5.98 5 7 C3.68 6.67 2.36 6.34 1 6 C0.67 4.02 0.34 2.04 0 0 Z " fill="#CED0A8" transform="translate(94,59)"/>
<path d="M0 0 C3.82097239 0.53069061 6.06171403 1.49701566 9 4 C6.33333333 4 3.66666667 4 1 4 C0.67 2.68 0.34 1.36 0 0 Z " fill="#D0CFA6" transform="translate(52,33)"/>
<path d="M0 0 C-0.33 0.99 -0.66 1.98 -1 3 C-5.75 2.25 -5.75 2.25 -8 0 C-2.25 -1.125 -2.25 -1.125 0 0 Z " fill="#D7D1A9" transform="translate(192,137)"/>
<path d="M0 0 C2.475 0.495 2.475 0.495 5 1 C5 1.99 5 2.98 5 4 C3.35 4.33 1.7 4.66 0 5 C0 3.35 0 1.7 0 0 Z " fill="#070522" transform="translate(211,109)"/>
<path d="M0 0 C0.66 0 1.32 0 2 0 C1.25 6.625 1.25 6.625 -1 10 C-1.125 3.375 -1.125 3.375 0 0 Z " fill="#11090A" transform="translate(103,97)"/>
<path d="M0 0 C3.3 0.33 6.6 0.66 10 1 C10 1.33 10 1.66 10 2 C6.7 2.33 3.4 2.66 0 3 C0 2.01 0 1.02 0 0 Z " fill="#0A0408" transform="translate(192,91)"/>
<path d="M0 0 C1.65 0 3.3 0 5 0 C5 0.99 5 1.98 5 3 C2.36 3 -0.28 3 -3 3 C-2.01 2.67 -1.02 2.34 0 2 C0 1.34 0 0.68 0 0 Z " fill="#1D1721" transform="translate(19,81)"/>
<path d="M0 0 C0.33 0 0.66 0 1 0 C1.33 2.31 1.66 4.62 2 7 C0.68 7.33 -0.64 7.66 -2 8 C-2 6.35 -2 4.7 -2 3 C-1.34 3 -0.68 3 0 3 C0 2.01 0 1.02 0 0 Z " fill="#0C0918" transform="translate(217,71)"/>
<path d="M0 0 C1.32 0.33 2.64 0.66 4 1 C4 1.99 4 2.98 4 4 C2.68 4.33 1.36 4.66 0 5 C-0.66 4.01 -1.32 3.02 -2 2 C-0.68 2.33 0.64 2.66 2 3 C2 2.34 2 1.68 2 1 C1.34 0.67 0.68 0.34 0 0 Z " fill="#DED79F" transform="translate(72,47)"/>
<path d="M0 0 C3.45925163 1.2491742 6.14693203 2.67527795 9 5 C4.78087253 4.5205537 2.20336822 3.83374881 -1 1 C-0.67 0.67 -0.34 0.34 0 0 Z " fill="#C4302B" transform="translate(42,37)"/>
<path d="M0 0 C1.32 0.66 2.64 1.32 4 2 C4 2.99 4 3.98 4 5 C3.01 5.495 3.01 5.495 2 6 C1.01 5.01 0.02 4.02 -1 3 C-0.67 2.01 -0.34 1.02 0 0 Z " fill="#110F1A" transform="translate(20,25)"/>
<path d="M0 0 C0.99 0.33 1.98 0.66 3 1 C2.25 7.75 2.25 7.75 0 10 C0 6.7 0 3.4 0 0 Z " fill="#0D0803" transform="translate(94,123)"/>
<path d="M0 0 C2.35953094 2.35953094 2.49141413 3.77895617 3 7 C2.01 7.66 1.02 8.32 0 9 C0 6.03 0 3.06 0 0 Z " fill="#372F19" transform="translate(151,117)"/>
<path d="M0 0 C2.09749995 2.35968744 2.96905704 3.54616994 3.1875 6.75 C3.0946875 7.86375 3.0946875 7.86375 3 9 C2.01 9 1.02 9 0 9 C0 6.03 0 3.06 0 0 Z " fill="#544530" transform="translate(178,104)"/>
<path d="M0 0 C0.99 0.33 1.98 0.66 3 1 C2.38125 1.4125 1.7625 1.825 1.125 2.25 C-1.06768281 4.05573879 -1.92788417 5.4090534 -3 8 C-3.33 6.35 -3.66 4.7 -4 3 C-2.1875 1.4375 -2.1875 1.4375 0 0 Z " fill="#130C0D" transform="translate(83,110)"/>
<path d="M0 0 C0.66 1.32 1.32 2.64 2 4 C1.02149805 5.02104551 0.02019573 6.0206121 -1 7 C-1.33 7 -1.66 7 -2 7 C-2.125 4.625 -2.125 4.625 -2 2 C-1.34 1.34 -0.68 0.68 0 0 Z " fill="#1E162C" transform="translate(25,103)"/>
<path d="M0 0 C0.66 0.33 1.32 0.66 2 1 C2.33 1.99 2.66 2.98 3 4 C1.02 4.99 1.02 4.99 -1 6 C-1 5.34 -1 4.68 -1 4 C-1.66 3.67 -2.32 3.34 -3 3 C-2.01 2.01 -1.02 1.02 0 0 Z " fill="#DBBDA2" transform="translate(149,72)"/>
<path d="M0 0 C1.98 0 3.96 0 6 0 C5.67 1.65 5.34 3.3 5 5 C3.35 3.35 1.7 1.7 0 0 Z " fill="#1A1214" transform="translate(106,68)"/>
<path d="M0 0 C0.99 0.33 1.98 0.66 3 1 C3.99 1 4.98 1 6 1 C5.01 2.485 5.01 2.485 4 4 C1.03 3.505 1.03 3.505 -2 3 C-1 1 -1 1 0 0 Z " fill="#0B0F16" transform="translate(107,65)"/>
<path d="M0 0 C0.66 0.99 1.32 1.98 2 3 C0.35 4.98 -1.3 6.96 -3 9 C-3.33 8.34 -3.66 7.68 -4 7 C-3.22265625 5.2734375 -3.22265625 5.2734375 -2.0625 3.375 C-1.381875 2.26125 -0.70125 1.1475 0 0 Z " fill="#B8B0A7" transform="translate(11,43)"/>
<path d="M0 0 C2.97 0.495 2.97 0.495 6 1 C6 1.99 6 2.98 6 4 C3.69 3.34 1.38 2.68 -1 2 C-0.67 1.34 -0.34 0.68 0 0 Z " fill="#2B2520" transform="translate(42,26)"/>
</svg>
